solid halvBoks
facet normal -1.0 0.0 0.0
  outer loop
    vertex 77.50000000000006 22.50000000000002 16.500000000002576
    vertex 77.50000000000006 2.5000000000000195 1.500000000002578
    vertex 77.50000000000006 2.5000000000000195 16.500000000002583
  endloop
endfacet
facet normal -1.0 0.0 0.0
  outer loop
    vertex 77.50000000000006 2.5000000000000195 1.500000000002578
    vertex 77.50000000000006 22.50000000000002 16.500000000002576
    vertex 77.50000000000006 22.585185434277342 15.852952387246274
  endloop
endfacet
facet normal -1.0 0.0 0.0
  outer loop
    vertex 77.50000000000006 2.5000000000000195 1.500000000002578
    vertex 77.50000000000006 22.585185434277342 15.852952387246274
    vertex 77.50000000000006 22.834936490538922 15.250000000002572
  endloop
endfacet
facet normal -1.0 0.0 0.0
  outer loop
    vertex 77.50000000000006 2.5000000000000195 1.500000000002578
    vertex 77.50000000000006 22.834936490538922 15.250000000002572
    vertex 77.50000000000006 23.232233047033656 14.732233047036202
  endloop
endfacet
facet normal -1.0 0.0 0.0
  outer loop
    vertex 77.50000000000006 2.5000000000000195 1.500000000002578
    vertex 77.50000000000006 23.232233047033656 14.732233047036202
    vertex 77.50000000000006 23.750000000000018 14.334936490541475
  endloop
endfacet
facet normal -1.0 0.0 0.0
  outer loop
    vertex 77.50000000000006 2.5000000000000195 1.500000000002578
    vertex 77.50000000000006 23.750000000000018 14.334936490541475
    vertex 77.50000000000006 47.500000000000014 1.500000000002578
  endloop
endfacet
facet normal -1.0 0.0 0.0
  outer loop
    vertex 77.50000000000006 47.500000000000014 1.500000000002578
    vertex 77.50000000000006 23.750000000000018 14.334936490541475
    vertex 77.50000000000006 24.352952387243715 14.0851854342799
  endloop
endfacet
facet normal -1.0 0.0 0.0
  outer loop
    vertex 77.50000000000006 47.500000000000014 1.500000000002578
    vertex 77.50000000000006 24.352952387243715 14.0851854342799
    vertex 77.50000000000006 25.000000000000018 14.000000000002574
  endloop
endfacet
facet normal -1.0 0.0 0.0
  outer loop
    vertex 77.50000000000006 47.500000000000014 1.500000000002578
    vertex 77.50000000000006 25.000000000000018 14.000000000002574
    vertex 77.50000000000006 25.647047612756317 14.0851854342799
  endloop
endfacet
facet normal -1.0 0.0 0.0
  outer loop
    vertex 77.50000000000006 47.500000000000014 1.500000000002578
    vertex 77.50000000000006 25.647047612756317 14.0851854342799
    vertex 77.50000000000006 26.250000000000014 14.334936490541475
  endloop
endfacet
facet normal -1.0 0.0 0.0
  outer loop
    vertex 77.50000000000006 47.500000000000014 1.500000000002578
    vertex 77.50000000000006 26.250000000000014 14.334936490541475
    vertex 77.50000000000006 26.76776695296639 14.732233047036202
  endloop
endfacet
facet normal -1.0 0.0 0.0
  outer loop
    vertex 77.50000000000006 47.500000000000014 1.500000000002578
    vertex 77.50000000000006 26.76776695296639 14.732233047036202
    vertex 77.50000000000006 27.16506350946111 15.250000000002572
  endloop
endfacet
facet normal -1.0 0.0 0.0
  outer loop
    vertex 77.50000000000006 47.500000000000014 1.500000000002578
    vertex 77.50000000000006 27.16506350946111 15.250000000002572
    vertex 77.50000000000006 27.41481456572269 15.852952387246274
  endloop
endfacet
facet normal -1.0 0.0 0.0
  outer loop
    vertex 77.50000000000006 47.500000000000014 1.500000000002578
    vertex 77.50000000000006 27.41481456572269 15.852952387246274
    vertex 77.50000000000006 27.50000000000001 16.500000000002576
  endloop
endfacet
facet normal -1.0 0.0 0.0
  outer loop
    vertex 77.50000000000006 47.500000000000014 1.500000000002578
    vertex 77.50000000000006 27.50000000000001 16.500000000002576
    vertex 77.50000000000006 47.500000000000014 16.500000000002583
  endloop
endfacet
facet normal 0.0 1.0 0.0
  outer loop
    vertex 4.513538747129137e-14 50.00000000000001 14.500000000002574
    vertex 80.00000000000003 50.00000000000001 -0.9999999999974222
    vertex 4.511946372076636e-14 50.00000000000001 -0.9999999999974222
  endloop
endfacet
facet normal 0.0 1.0 0.0
  outer loop
    vertex 80.00000000000003 50.00000000000001 -0.9999999999974222
    vertex 4.513538747129137e-14 50.00000000000001 14.500000000002574
    vertex 80.00000000000003 50.00000000000001 14.500000000002574
  endloop
endfacet
facet normal 0.0 1.0 0.0
  outer loop
    vertex 2.500000000000042 2.5000000000000195 1.5000000000025782
    vertex 77.50000000000006 2.5000000000000195 16.500000000002583
    vertex 77.50000000000006 2.5000000000000195 1.500000000002578
  endloop
endfacet
facet normal 0.0 1.0 0.0
  outer loop
    vertex 77.50000000000006 2.5000000000000195 16.500000000002583
    vertex 2.500000000000042 2.5000000000000195 1.5000000000025782
    vertex 2.500000000000042 2.5000000000000195 16.500000000002583
  endloop
endfacet
facet normal 0.0 -1.0 0.0
  outer loop
    vertex 80.00000000000003 2.239860385148057e-14 14.50000000000258
    vertex 4.511946372076636e-14 2.255973186038318e-14 -0.9999999999974222
    vertex 80.00000000000003 2.255973186038318e-14 -0.9999999999974222
  endloop
endfacet
facet normal 0.0 -1.0 0.0
  outer loop
    vertex 4.511946372076636e-14 2.255973186038318e-14 -0.9999999999974222
    vertex 80.00000000000003 2.239860385148057e-14 14.50000000000258
    vertex 4.512375931673834e-14 2.239860385148057e-14 14.50000000000258
  endloop
endfacet
facet normal 0.0 0.9238795325112843 0.3826834323650961
  outer loop
    vertex 77.50000000000006 22.585185434277342 15.852952387246274
    vertex 80.00000000000003 22.834936490538922 15.250000000002572
    vertex 77.50000000000006 22.834936490538922 15.250000000002572
  endloop
endfacet
facet normal 0.0 0.9238795325112843 0.3826834323650961
  outer loop
    vertex 80.00000000000003 22.834936490538922 15.250000000002572
    vertex 77.50000000000006 22.585185434277342 15.852952387246274
    vertex 80.00000000000003 22.585185434277342 15.852952387246274
  endloop
endfacet
facet normal 0.0 0.7933533402912317 0.608761429008725
  outer loop
    vertex 77.50000000000006 22.834936490538922 15.250000000002572
    vertex 80.00000000000003 23.232233047033656 14.732233047036202
    vertex 77.50000000000006 23.232233047033656 14.732233047036202
  endloop
endfacet
facet normal 0.0 0.7933533402912317 0.608761429008725
  outer loop
    vertex 80.00000000000003 23.232233047033656 14.732233047036202
    vertex 77.50000000000006 22.834936490538922 15.250000000002572
    vertex 80.00000000000003 22.834936490538922 15.250000000002572
  endloop
endfacet
facet normal 0.0 0.0 -1.0
  outer loop
    vertex 80.00000000000003 50.00000000000001 -0.9999999999974222
    vertex 4.511946372076636e-14 2.255973186038318e-14 -0.9999999999974222
    vertex 4.511946372076636e-14 50.00000000000001 -0.9999999999974222
  endloop
endfacet
facet normal 0.0 0.0 -1.0
  outer loop
    vertex 4.511946372076636e-14 2.255973186038318e-14 -0.9999999999974222
    vertex 80.00000000000003 50.00000000000001 -0.9999999999974222
    vertex 80.00000000000003 2.255973186038318e-14 -0.9999999999974222
  endloop
endfacet
facet normal -1.0 0.0 0.0
  outer loop
    vertex 4.511946372076636e-14 27.832454052929148 14.50000000000258
    vertex 4.511946372076636e-14 19.110547000664386 14.000000000002574
    vertex 4.511946372076636e-14 19.110547000664386 14.50000000000258
  endloop
endfacet
facet normal -1.0 0.0 0.0
  outer loop
    vertex 4.513538747129137e-14 50.00000000000001 14.500000000002574
    vertex 4.511946372076636e-14 40.83245405292912 9.000000000002572
    vertex 4.513538747129137e-14 40.83245405292912 14.500000000002574
  endloop
endfacet
facet normal -1.0 0.0 0.0
  outer loop
    vertex 4.512375931673834e-14 9.110547000664397 14.50000000000258
    vertex 4.511946372076636e-14 2.255973186038318e-14 -0.9999999999974222
    vertex 4.512375931673834e-14 2.239860385148057e-14 14.50000000000258
  endloop
endfacet
facet normal -1.0 0.0 0.0
  outer loop
    vertex 4.511946372076636e-14 2.255973186038318e-14 -0.9999999999974222
    vertex 4.512375931673834e-14 9.110547000664397 14.50000000000258
    vertex 4.511946372076636e-14 9.110547000664397 14.000000000002574
  endloop
endfacet
facet normal -1.0 0.0 0.0
  outer loop
    vertex 4.511946372076636e-14 2.255973186038318e-14 -0.9999999999974222
    vertex 4.511946372076636e-14 9.110547000664397 14.000000000002574
    vertex 4.511946372076636e-14 50.00000000000001 -0.9999999999974222
  endloop
endfacet
facet normal -1.0 0.0 0.0
  outer loop
    vertex 4.511946372076636e-14 50.00000000000001 -0.9999999999974222
    vertex 4.511946372076636e-14 9.110547000664397 14.000000000002574
    vertex 4.511946372076636e-14 27.832454052929148 9.000000000002572
  endloop
endfacet
facet normal -1.0 0.0 0.0
  outer loop
    vertex 4.511946372076636e-14 27.832454052929148 9.000000000002572
    vertex 4.511946372076636e-14 9.110547000664397 14.000000000002574
    vertex 4.511946372076636e-14 19.110547000664386 14.000000000002574
  endloop
endfacet
facet normal -1.0 0.0 0.0
  outer loop
    vertex 4.511946372076636e-14 27.832454052929148 9.000000000002572
    vertex 4.511946372076636e-14 19.110547000664386 14.000000000002574
    vertex 4.511946372076636e-14 27.832454052929148 14.50000000000258
  endloop
endfacet
facet normal -1.0 0.0 0.0
  outer loop
    vertex 4.511946372076636e-14 50.00000000000001 -0.9999999999974222
    vertex 4.511946372076636e-14 27.832454052929148 9.000000000002572
    vertex 4.511946372076636e-14 40.83245405292912 9.000000000002572
  endloop
endfacet
facet normal -1.0 0.0 0.0
  outer loop
    vertex 4.511946372076636e-14 50.00000000000001 -0.9999999999974222
    vertex 4.511946372076636e-14 40.83245405292912 9.000000000002572
    vertex 4.513538747129137e-14 50.00000000000001 14.500000000002574
  endloop
endfacet
facet normal 1.0 3.4185670139567112e-18 2.0612792897703016e-16
  outer loop
    vertex 2.500000000000042 2.5000000000000195 1.5000000000025782
    vertex 2.500000000000037 9.110547000664397 14.000000000002574
    vertex 2.500000000000042 2.5000000000000195 16.500000000002583
  endloop
endfacet
facet normal 1.0 3.4185670139567112e-18 2.0612792897703016e-16
  outer loop
    vertex 2.500000000000037 9.110547000664397 14.000000000002574
    vertex 2.500000000000042 2.5000000000000195 1.5000000000025782
    vertex 2.500000000000042 47.500000000000014 1.5000000000025782
  endloop
endfacet
facet normal 1.0 3.4185670139567112e-18 2.0612792897703016e-16
  outer loop
    vertex 2.500000000000037 9.110547000664397 14.000000000002574
    vertex 2.500000000000042 47.500000000000014 1.5000000000025782
    vertex 2.500000000000037 27.832454052929148 9.000000000002572
  endloop
endfacet
facet normal 1.0 3.4185670139567112e-18 2.0612792897703016e-16
  outer loop
    vertex 2.500000000000037 9.110547000664397 14.000000000002574
    vertex 2.500000000000037 27.832454052929148 9.000000000002572
    vertex 2.500000000000037 19.110547000664386 14.000000000002574
  endloop
endfacet
facet normal 1.0 3.4185670139567112e-18 2.0612792897703016e-16
  outer loop
    vertex 2.500000000000037 19.110547000664386 14.000000000002574
    vertex 2.500000000000037 27.832454052929148 9.000000000002572
    vertex 2.500000000000037 19.110547000664386 16.500000000002576
  endloop
endfacet
facet normal 1.0 3.4185670139567112e-18 2.0612792897703016e-16
  outer loop
    vertex 2.500000000000037 27.832454052929148 9.000000000002572
    vertex 2.500000000000042 47.500000000000014 1.5000000000025782
    vertex 2.500000000000037 40.83245405292912 9.000000000002572
  endloop
endfacet
facet normal 1.0 3.4185670139567112e-18 2.0612792897703016e-16
  outer loop
    vertex 2.500000000000037 40.83245405292912 9.000000000002572
    vertex 2.500000000000042 47.500000000000014 1.5000000000025782
    vertex 2.500000000000037 40.83245405292912 16.500000000002576
  endloop
endfacet
facet normal 1.0 3.4185670139567112e-18 2.0612792897703016e-16
  outer loop
    vertex 2.500000000000037 40.83245405292912 16.500000000002576
    vertex 2.500000000000042 47.500000000000014 1.5000000000025782
    vertex 2.500000000000042 47.500000000000014 16.500000000002583
  endloop
endfacet
facet normal 1.0 3.4185670139567112e-18 2.0612792897703016e-16
  outer loop
    vertex 2.500000000000037 27.832454052929148 16.500000000002576
    vertex 2.500000000000037 19.110547000664386 16.500000000002576
    vertex 2.500000000000037 27.832454052929148 9.000000000002572
  endloop
endfacet
facet normal 1.0 3.4185670139567112e-18 2.0612792897703016e-16
  outer loop
    vertex 2.500000000000037 9.110547000664397 16.500000000002576
    vertex 2.500000000000042 2.5000000000000195 16.500000000002583
    vertex 2.500000000000037 9.110547000664397 14.000000000002574
  endloop
endfacet
facet normal 0.0 0.0 1.0
  outer loop
    vertex 77.50000000000006 2.5000000000000195 1.500000000002578
    vertex 2.500000000000042 47.500000000000014 1.5000000000025782
    vertex 2.500000000000042 2.5000000000000195 1.5000000000025782
  endloop
endfacet
facet normal 0.0 0.0 1.0
  outer loop
    vertex 2.500000000000042 47.500000000000014 1.5000000000025782
    vertex 77.50000000000006 2.5000000000000195 1.500000000002578
    vertex 77.50000000000006 47.500000000000014 1.500000000002578
  endloop
endfacet
facet normal 0.0 1.0 0.0
  outer loop
    vertex 4.511946372076636e-14 27.832454052929148 14.50000000000258
    vertex 2.500000000000037 27.832454052929148 9.000000000002572
    vertex 4.511946372076636e-14 27.832454052929148 9.000000000002572
  endloop
endfacet
facet normal 0.0 1.0 0.0
  outer loop
    vertex 2.500000000000037 27.832454052929148 9.000000000002572
    vertex 4.511946372076636e-14 27.832454052929148 14.50000000000258
    vertex 1.2500000000000409 27.832454052929148 14.50000000000258
  endloop
endfacet
facet normal 0.0 1.0 0.0
  outer loop
    vertex 2.500000000000037 27.832454052929148 9.000000000002572
    vertex 1.2500000000000409 27.832454052929148 14.50000000000258
    vertex 2.500000000000037 27.832454052929148 16.500000000002576
  endloop
endfacet
facet normal 0.0 1.0 0.0
  outer loop
    vertex 2.500000000000037 27.832454052929148 16.500000000002576
    vertex 1.2500000000000409 27.832454052929148 14.50000000000258
    vertex 1.2500000000000409 27.832454052929148 16.500000000002576
  endloop
endfacet
facet normal 0.0 0.0 1.0
  outer loop
    vertex 2.500000000000037 27.832454052929148 9.000000000002572
    vertex 4.511946372076636e-14 40.83245405292912 9.000000000002572
    vertex 4.511946372076636e-14 27.832454052929148 9.000000000002572
  endloop
endfacet
facet normal 0.0 0.0 1.0
  outer loop
    vertex 4.511946372076636e-14 40.83245405292912 9.000000000002572
    vertex 2.500000000000037 27.832454052929148 9.000000000002572
    vertex 2.500000000000037 40.83245405292912 9.000000000002572
  endloop
endfacet
facet normal 0.0 -1.0 0.0
  outer loop
    vertex 2.500000000000037 40.83245405292912 16.500000000002576
    vertex 4.511946372076636e-14 40.83245405292912 9.000000000002572
    vertex 2.500000000000037 40.83245405292912 9.000000000002572
  endloop
endfacet
facet normal 0.0 -1.0 0.0
  outer loop
    vertex 4.511946372076636e-14 40.83245405292912 9.000000000002572
    vertex 2.500000000000037 40.83245405292912 16.500000000002576
    vertex 1.2500000000000409 40.83245405292912 14.500000000002574
  endloop
endfacet
facet normal 0.0 -1.0 0.0
  outer loop
    vertex 1.2500000000000409 40.83245405292912 14.500000000002574
    vertex 2.500000000000037 40.83245405292912 16.500000000002576
    vertex 1.2500000000000409 40.83245405292912 16.500000000002576
  endloop
endfacet
facet normal 0.0 -1.0 0.0
  outer loop
    vertex 4.513538747129137e-14 40.83245405292912 14.500000000002574
    vertex 4.511946372076636e-14 40.83245405292912 9.000000000002572
    vertex 1.2500000000000409 40.83245405292912 14.500000000002574
  endloop
endfacet
facet normal 0.0 -0.991444861373812 0.1305261922200391
  outer loop
    vertex 80.00000000000003 27.50000000000001 16.500000000002576
    vertex 77.50000000000006 27.41481456572269 15.852952387246274
    vertex 80.00000000000003 27.41481456572269 15.852952387246274
  endloop
endfacet
facet normal 0.0 -0.991444861373812 0.1305261922200391
  outer loop
    vertex 77.50000000000006 27.41481456572269 15.852952387246274
    vertex 80.00000000000003 27.50000000000001 16.500000000002576
    vertex 77.50000000000006 27.50000000000001 16.500000000002576
  endloop
endfacet
facet normal 0.0 0.3826834323650902 0.9238795325112865
  outer loop
    vertex 80.00000000000003 23.750000000000018 14.334936490541475
    vertex 77.50000000000006 24.352952387243715 14.0851854342799
    vertex 77.50000000000006 23.750000000000018 14.334936490541475
  endloop
endfacet
facet normal 0.0 0.3826834323650902 0.9238795325112865
  outer loop
    vertex 77.50000000000006 24.352952387243715 14.0851854342799
    vertex 80.00000000000003 23.750000000000018 14.334936490541475
    vertex 80.00000000000003 24.352952387243715 14.0851854342799
  endloop
endfacet
facet normal 0.0 0.13052619222005185 0.9914448613738105
  outer loop
    vertex 80.00000000000003 24.352952387243715 14.0851854342799
    vertex 77.50000000000006 25.000000000000018 14.000000000002574
    vertex 77.50000000000006 24.352952387243715 14.0851854342799
  endloop
endfacet
facet normal 0.0 0.13052619222005185 0.9914448613738105
  outer loop
    vertex 77.50000000000006 25.000000000000018 14.000000000002574
    vertex 80.00000000000003 24.352952387243715 14.0851854342799
    vertex 80.00000000000003 25.000000000000018 14.000000000002574
  endloop
endfacet
facet normal 0.0 0.991444861373812 0.1305261922200391
  outer loop
    vertex 77.50000000000006 22.50000000000002 16.500000000002576
    vertex 80.00000000000003 22.585185434277342 15.852952387246274
    vertex 77.50000000000006 22.585185434277342 15.852952387246274
  endloop
endfacet
facet normal 0.0 0.991444861373812 0.1305261922200391
  outer loop
    vertex 80.00000000000003 22.585185434277342 15.852952387246274
    vertex 77.50000000000006 22.50000000000002 16.500000000002576
    vertex 80.00000000000003 22.50000000000002 16.500000000002576
  endloop
endfacet
facet normal 0.0 -0.13052619222005185 0.9914448613738105
  outer loop
    vertex 80.00000000000003 25.000000000000018 14.000000000002574
    vertex 77.50000000000006 25.647047612756317 14.0851854342799
    vertex 77.50000000000006 25.000000000000018 14.000000000002574
  endloop
endfacet
facet normal 0.0 -0.13052619222005185 0.9914448613738105
  outer loop
    vertex 77.50000000000006 25.647047612756317 14.0851854342799
    vertex 80.00000000000003 25.000000000000018 14.000000000002574
    vertex 80.00000000000003 25.647047612756317 14.0851854342799
  endloop
endfacet
facet normal 0.0 -1.0 0.0
  outer loop
    vertex 77.50000000000006 47.500000000000014 16.500000000002583
    vertex 2.500000000000042 47.500000000000014 1.5000000000025782
    vertex 77.50000000000006 47.500000000000014 1.500000000002578
  endloop
endfacet
facet normal 0.0 -1.0 0.0
  outer loop
    vertex 2.500000000000042 47.500000000000014 1.5000000000025782
    vertex 77.50000000000006 47.500000000000014 16.500000000002583
    vertex 2.500000000000042 47.500000000000014 16.500000000002583
  endloop
endfacet
facet normal 0.0 -0.9238795325112843 0.3826834323650961
  outer loop
    vertex 80.00000000000003 27.41481456572269 15.852952387246274
    vertex 77.50000000000006 27.16506350946111 15.250000000002572
    vertex 80.00000000000003 27.16506350946111 15.250000000002572
  endloop
endfacet
facet normal 0.0 -0.9238795325112843 0.3826834323650961
  outer loop
    vertex 77.50000000000006 27.16506350946111 15.250000000002572
    vertex 80.00000000000003 27.41481456572269 15.852952387246274
    vertex 77.50000000000006 27.41481456572269 15.852952387246274
  endloop
endfacet
facet normal 0.0 0.0 1.0
  outer loop
    vertex 2.500000000000037 9.110547000664397 14.000000000002574
    vertex 4.511946372076636e-14 19.110547000664386 14.000000000002574
    vertex 4.511946372076636e-14 9.110547000664397 14.000000000002574
  endloop
endfacet
facet normal 0.0 0.0 1.0
  outer loop
    vertex 4.511946372076636e-14 19.110547000664386 14.000000000002574
    vertex 2.500000000000037 9.110547000664397 14.000000000002574
    vertex 2.500000000000037 19.110547000664386 14.000000000002574
  endloop
endfacet
facet normal 0.0 0.6087614290087238 0.7933533402912327
  outer loop
    vertex 80.00000000000003 23.232233047033656 14.732233047036202
    vertex 77.50000000000006 23.750000000000018 14.334936490541475
    vertex 77.50000000000006 23.232233047033656 14.732233047036202
  endloop
endfacet
facet normal 0.0 0.6087614290087238 0.7933533402912327
  outer loop
    vertex 77.50000000000006 23.750000000000018 14.334936490541475
    vertex 80.00000000000003 23.232233047033656 14.732233047036202
    vertex 80.00000000000003 23.750000000000018 14.334936490541475
  endloop
endfacet
facet normal 0.0 -0.3826834323650902 0.9238795325112865
  outer loop
    vertex 80.00000000000003 25.647047612756317 14.0851854342799
    vertex 77.50000000000006 26.250000000000014 14.334936490541475
    vertex 77.50000000000006 25.647047612756317 14.0851854342799
  endloop
endfacet
facet normal 0.0 -0.3826834323650902 0.9238795325112865
  outer loop
    vertex 77.50000000000006 26.250000000000014 14.334936490541475
    vertex 80.00000000000003 25.647047612756317 14.0851854342799
    vertex 80.00000000000003 26.250000000000014 14.334936490541475
  endloop
endfacet
facet normal 0.0 1.0 0.0
  outer loop
    vertex 4.512375931673834e-14 9.110547000664397 14.50000000000258
    vertex 2.500000000000037 9.110547000664397 14.000000000002574
    vertex 4.511946372076636e-14 9.110547000664397 14.000000000002574
  endloop
endfacet
facet normal 0.0 1.0 0.0
  outer loop
    vertex 2.500000000000037 9.110547000664397 14.000000000002574
    vertex 4.512375931673834e-14 9.110547000664397 14.50000000000258
    vertex 1.2500000000000409 9.110547000664397 14.50000000000258
  endloop
endfacet
facet normal 0.0 1.0 0.0
  outer loop
    vertex 2.500000000000037 9.110547000664397 14.000000000002574
    vertex 1.2500000000000409 9.110547000664397 14.50000000000258
    vertex 2.500000000000037 9.110547000664397 16.500000000002576
  endloop
endfacet
facet normal 0.0 1.0 0.0
  outer loop
    vertex 2.500000000000037 9.110547000664397 16.500000000002576
    vertex 1.2500000000000409 9.110547000664397 14.50000000000258
    vertex 1.2500000000000409 9.110547000664397 16.500000000002576
  endloop
endfacet
facet normal 0.0 -0.6087614290087153 0.7933533402912392
  outer loop
    vertex 80.00000000000003 26.250000000000014 14.334936490541475
    vertex 77.50000000000006 26.76776695296639 14.732233047036202
    vertex 77.50000000000006 26.250000000000014 14.334936490541475
  endloop
endfacet
facet normal 0.0 -0.6087614290087153 0.7933533402912392
  outer loop
    vertex 77.50000000000006 26.76776695296639 14.732233047036202
    vertex 80.00000000000003 26.250000000000014 14.334936490541475
    vertex 80.00000000000003 26.76776695296639 14.732233047036202
  endloop
endfacet
facet normal 0.0 -0.7933533402912402 0.6087614290087142
  outer loop
    vertex 80.00000000000003 27.16506350946111 15.250000000002572
    vertex 77.50000000000006 26.76776695296639 14.732233047036202
    vertex 80.00000000000003 26.76776695296639 14.732233047036202
  endloop
endfacet
facet normal 0.0 -0.7933533402912402 0.6087614290087142
  outer loop
    vertex 77.50000000000006 26.76776695296639 14.732233047036202
    vertex 80.00000000000003 27.16506350946111 15.250000000002572
    vertex 77.50000000000006 27.16506350946111 15.250000000002572
  endloop
endfacet
facet normal 0.0 -1.0 0.0
  outer loop
    vertex 2.500000000000037 19.110547000664386 14.000000000002574
    vertex 1.2500000000000409 19.110547000664386 14.50000000000258
    vertex 4.511946372076636e-14 19.110547000664386 14.000000000002574
  endloop
endfacet
facet normal 0.0 -1.0 0.0
  outer loop
    vertex 1.2500000000000409 19.110547000664386 14.50000000000258
    vertex 2.500000000000037 19.110547000664386 14.000000000002574
    vertex 2.500000000000037 19.110547000664386 16.500000000002576
  endloop
endfacet
facet normal 0.0 -1.0 0.0
  outer loop
    vertex 1.2500000000000409 19.110547000664386 14.50000000000258
    vertex 2.500000000000037 19.110547000664386 16.500000000002576
    vertex 1.2500000000000409 19.110547000664386 16.500000000002576
  endloop
endfacet
facet normal 0.0 -1.0 0.0
  outer loop
    vertex 4.511946372076636e-14 19.110547000664386 14.50000000000258
    vertex 4.511946372076636e-14 19.110547000664386 14.000000000002574
    vertex 1.2500000000000409 19.110547000664386 14.50000000000258
  endloop
endfacet
facet normal 1.0 0.0 0.0
  outer loop
    vertex 80.00000000000003 2.255973186038318e-14 -0.9999999999974222
    vertex 80.00000000000003 20.50000000000002 14.50000000000258
    vertex 80.00000000000003 2.239860385148057e-14 14.50000000000258
  endloop
endfacet
facet normal 1.0 0.0 0.0
  outer loop
    vertex 80.00000000000003 20.50000000000002 14.50000000000258
    vertex 80.00000000000003 2.255973186038318e-14 -0.9999999999974222
    vertex 80.00000000000003 50.00000000000001 -0.9999999999974222
  endloop
endfacet
facet normal 1.0 0.0 0.0
  outer loop
    vertex 80.00000000000003 20.50000000000002 14.50000000000258
    vertex 80.00000000000003 50.00000000000001 -0.9999999999974222
    vertex 80.00000000000003 23.750000000000018 14.334936490541475
  endloop
endfacet
facet normal 1.0 0.0 0.0
  outer loop
    vertex 80.00000000000003 20.50000000000002 14.50000000000258
    vertex 80.00000000000003 23.750000000000018 14.334936490541475
    vertex 80.00000000000003 20.50000000000002 16.500000000002576
  endloop
endfacet
facet normal 1.0 0.0 0.0
  outer loop
    vertex 80.00000000000003 20.50000000000002 16.500000000002576
    vertex 80.00000000000003 23.750000000000018 14.334936490541475
    vertex 80.00000000000003 23.232233047033656 14.732233047036202
  endloop
endfacet
facet normal 1.0 0.0 0.0
  outer loop
    vertex 80.00000000000003 20.50000000000002 16.500000000002576
    vertex 80.00000000000003 23.232233047033656 14.732233047036202
    vertex 80.00000000000003 22.834936490538922 15.250000000002572
  endloop
endfacet
facet normal 1.0 0.0 0.0
  outer loop
    vertex 80.00000000000003 20.50000000000002 16.500000000002576
    vertex 80.00000000000003 22.834936490538922 15.250000000002572
    vertex 80.00000000000003 22.585185434277342 15.852952387246274
  endloop
endfacet
facet normal 1.0 0.0 0.0
  outer loop
    vertex 80.00000000000003 20.50000000000002 16.500000000002576
    vertex 80.00000000000003 22.585185434277342 15.852952387246274
    vertex 80.00000000000003 22.50000000000002 16.500000000002576
  endloop
endfacet
facet normal 1.0 0.0 0.0
  outer loop
    vertex 80.00000000000003 23.750000000000018 14.334936490541475
    vertex 80.00000000000003 50.00000000000001 -0.9999999999974222
    vertex 80.00000000000003 24.352952387243715 14.0851854342799
  endloop
endfacet
facet normal 1.0 0.0 0.0
  outer loop
    vertex 80.00000000000003 24.352952387243715 14.0851854342799
    vertex 80.00000000000003 50.00000000000001 -0.9999999999974222
    vertex 80.00000000000003 25.000000000000018 14.000000000002574
  endloop
endfacet
facet normal 1.0 0.0 0.0
  outer loop
    vertex 80.00000000000003 25.000000000000018 14.000000000002574
    vertex 80.00000000000003 50.00000000000001 -0.9999999999974222
    vertex 80.00000000000003 25.647047612756317 14.0851854342799
  endloop
endfacet
facet normal 1.0 0.0 0.0
  outer loop
    vertex 80.00000000000003 25.647047612756317 14.0851854342799
    vertex 80.00000000000003 50.00000000000001 -0.9999999999974222
    vertex 80.00000000000003 26.250000000000014 14.334936490541475
  endloop
endfacet
facet normal 1.0 0.0 0.0
  outer loop
    vertex 80.00000000000003 26.250000000000014 14.334936490541475
    vertex 80.00000000000003 50.00000000000001 -0.9999999999974222
    vertex 80.00000000000003 26.76776695296639 14.732233047036202
  endloop
endfacet
facet normal 1.0 0.0 0.0
  outer loop
    vertex 80.00000000000003 26.76776695296639 14.732233047036202
    vertex 80.00000000000003 50.00000000000001 -0.9999999999974222
    vertex 80.00000000000003 27.16506350946111 15.250000000002572
  endloop
endfacet
facet normal 1.0 0.0 0.0
  outer loop
    vertex 80.00000000000003 27.16506350946111 15.250000000002572
    vertex 80.00000000000003 50.00000000000001 -0.9999999999974222
    vertex 80.00000000000003 27.41481456572269 15.852952387246274
  endloop
endfacet
facet normal 1.0 0.0 0.0
  outer loop
    vertex 80.00000000000003 27.41481456572269 15.852952387246274
    vertex 80.00000000000003 50.00000000000001 -0.9999999999974222
    vertex 80.00000000000003 29.500000000000014 14.500000000002574
  endloop
endfacet
facet normal 1.0 0.0 0.0
  outer loop
    vertex 80.00000000000003 27.41481456572269 15.852952387246274
    vertex 80.00000000000003 29.500000000000014 14.500000000002574
    vertex 80.00000000000003 27.50000000000001 16.500000000002576
  endloop
endfacet
facet normal 1.0 0.0 0.0
  outer loop
    vertex 80.00000000000003 29.500000000000014 14.500000000002574
    vertex 80.00000000000003 50.00000000000001 -0.9999999999974222
    vertex 80.00000000000003 50.00000000000001 14.500000000002574
  endloop
endfacet
facet normal 1.0 0.0 0.0
  outer loop
    vertex 80.00000000000003 29.500000000000014 16.500000000002576
    vertex 80.00000000000003 27.50000000000001 16.500000000002576
    vertex 80.00000000000003 29.500000000000014 14.500000000002574
  endloop
endfacet
facet normal 0.0 0.0 1.0
  outer loop
    vertex 2.500000000000037 19.110547000664386 16.500000000002576
    vertex 1.2500000000000409 27.832454052929148 16.500000000002576
    vertex 1.2500000000000409 19.110547000664386 16.500000000002576
  endloop
endfacet
facet normal 0.0 0.0 1.0
  outer loop
    vertex 1.2500000000000409 27.832454052929148 16.500000000002576
    vertex 2.500000000000037 19.110547000664386 16.500000000002576
    vertex 2.500000000000037 27.832454052929148 16.500000000002576
  endloop
endfacet
facet normal -7.961875262506867e-18 -6.383805783656589e-17 1.0
  outer loop
    vertex 80.00000000000003 29.500000000000014 14.500000000002574
    vertex 78.75000000000004 48.750000000000014 14.50000000000258
    vertex 78.75000000000004 29.500000000000014 14.500000000002574
  endloop
endfacet
facet normal -7.961875262506867e-18 -6.383805783656589e-17 1.0
  outer loop
    vertex 1.2500000000000409 40.83245405292912 14.500000000002574
    vertex 4.513538747129137e-14 50.00000000000001 14.500000000002574
    vertex 4.513538747129137e-14 40.83245405292912 14.500000000002574
  endloop
endfacet
facet normal -7.961875262506867e-18 -6.383805783656589e-17 1.0
  outer loop
    vertex 4.513538747129137e-14 50.00000000000001 14.500000000002574
    vertex 1.2500000000000409 40.83245405292912 14.500000000002574
    vertex 1.2500000000000526 48.750000000000014 14.50000000000258
  endloop
endfacet
facet normal -7.961875262506867e-18 -6.383805783656589e-17 1.0
  outer loop
    vertex 4.513538747129137e-14 50.00000000000001 14.500000000002574
    vertex 1.2500000000000526 48.750000000000014 14.50000000000258
    vertex 80.00000000000003 50.00000000000001 14.500000000002574
  endloop
endfacet
facet normal -7.961875262506867e-18 -6.383805783656589e-17 1.0
  outer loop
    vertex 80.00000000000003 50.00000000000001 14.500000000002574
    vertex 1.2500000000000526 48.750000000000014 14.50000000000258
    vertex 78.75000000000004 48.750000000000014 14.50000000000258
  endloop
endfacet
facet normal -7.961875262506867e-18 -6.383805783656589e-17 1.0
  outer loop
    vertex 80.00000000000003 50.00000000000001 14.500000000002574
    vertex 78.75000000000004 48.750000000000014 14.50000000000258
    vertex 80.00000000000003 29.500000000000014 14.500000000002574
  endloop
endfacet
facet normal -1.0 1.4914481993044753e-15 -7.961875262506771e-18
  outer loop
    vertex 1.2500000000000526 48.750000000000014 16.500000000002576
    vertex 1.2500000000000409 40.83245405292912 14.500000000002574
    vertex 1.2500000000000409 40.83245405292912 16.500000000002576
  endloop
endfacet
facet normal -1.0 1.4914481993044753e-15 -7.961875262506771e-18
  outer loop
    vertex 1.2500000000000409 40.83245405292912 14.500000000002574
    vertex 1.2500000000000526 48.750000000000014 16.500000000002576
    vertex 1.2500000000000526 48.750000000000014 14.50000000000258
  endloop
endfacet
facet normal 0.0 1.0 6.383805783656589e-17
  outer loop
    vertex 1.2500000000000526 48.750000000000014 16.500000000002576
    vertex 78.75000000000004 48.750000000000014 14.50000000000258
    vertex 1.2500000000000526 48.750000000000014 14.50000000000258
  endloop
endfacet
facet normal 0.0 1.0 6.383805783656589e-17
  outer loop
    vertex 78.75000000000004 48.750000000000014 14.50000000000258
    vertex 1.2500000000000526 48.750000000000014 16.500000000002576
    vertex 78.75000000000004 48.750000000000014 16.500000000002576
  endloop
endfacet
facet normal 1.0 -1.056575123693958e-33 7.961875262506867e-18
  outer loop
    vertex 78.75000000000004 48.750000000000014 14.50000000000258
    vertex 78.75000000000004 29.500000000000014 16.500000000002576
    vertex 78.75000000000004 29.500000000000014 14.500000000002574
  endloop
endfacet
facet normal 1.0 -1.056575123693958e-33 7.961875262506867e-18
  outer loop
    vertex 78.75000000000004 29.500000000000014 16.500000000002576
    vertex 78.75000000000004 48.750000000000014 14.50000000000258
    vertex 78.75000000000004 48.750000000000014 16.500000000002576
  endloop
endfacet
facet normal -2.1477979859877808e-18 8.056400445130503e-17 1.0
  outer loop
    vertex 4.512375931673834e-14 2.239860385148057e-14 14.50000000000258
    vertex 1.2500000000000362 1.2500000000000204 14.500000000002585
    vertex 4.512375931673834e-14 9.110547000664397 14.50000000000258
  endloop
endfacet
facet normal -2.1477979859877808e-18 8.056400445130503e-17 1.0
  outer loop
    vertex 1.2500000000000362 1.2500000000000204 14.500000000002585
    vertex 4.512375931673834e-14 2.239860385148057e-14 14.50000000000258
    vertex 80.00000000000003 2.239860385148057e-14 14.50000000000258
  endloop
endfacet
facet normal -2.1477979859877808e-18 8.056400445130503e-17 1.0
  outer loop
    vertex 1.2500000000000362 1.2500000000000204 14.500000000002585
    vertex 80.00000000000003 2.239860385148057e-14 14.50000000000258
    vertex 78.75000000000004 1.2500000000000209 14.500000000002585
  endloop
endfacet
facet normal -2.1477979859877808e-18 8.056400445130503e-17 1.0
  outer loop
    vertex 78.75000000000004 1.2500000000000209 14.500000000002585
    vertex 80.00000000000003 2.239860385148057e-14 14.50000000000258
    vertex 78.75000000000004 20.50000000000002 14.50000000000258
  endloop
endfacet
facet normal -2.1477979859877808e-18 8.056400445130503e-17 1.0
  outer loop
    vertex 78.75000000000004 20.50000000000002 14.50000000000258
    vertex 80.00000000000003 2.239860385148057e-14 14.50000000000258
    vertex 80.00000000000003 20.50000000000002 14.50000000000258
  endloop
endfacet
facet normal -2.1477979859877808e-18 8.056400445130503e-17 1.0
  outer loop
    vertex 1.2500000000000409 9.110547000664397 14.50000000000258
    vertex 4.512375931673834e-14 9.110547000664397 14.50000000000258
    vertex 1.2500000000000362 1.2500000000000204 14.500000000002585
  endloop
endfacet
facet normal 6.822499554551363e-18 -1.0 8.056400445130503e-17
  outer loop
    vertex 78.75000000000004 1.2500000000000209 16.500000000002576
    vertex 1.2500000000000362 1.2500000000000204 14.500000000002585
    vertex 78.75000000000004 1.2500000000000209 14.500000000002585
  endloop
endfacet
facet normal 6.822499554551363e-18 -1.0 8.056400445130503e-17
  outer loop
    vertex 1.2500000000000362 1.2500000000000204 14.500000000002585
    vertex 78.75000000000004 1.2500000000000209 16.500000000002576
    vertex 1.2500000000000362 1.2500000000000204 16.500000000002576
  endloop
endfacet
facet normal -1.0 6.053896044254136e-16 -2.1477979859878297e-18
  outer loop
    vertex 1.2500000000000409 9.110547000664397 16.500000000002576
    vertex 1.2500000000000362 1.2500000000000204 14.500000000002585
    vertex 1.2500000000000362 1.2500000000000204 16.500000000002576
  endloop
endfacet
facet normal -1.0 6.053896044254136e-16 -2.1477979859878297e-18
  outer loop
    vertex 1.2500000000000362 1.2500000000000204 14.500000000002585
    vertex 1.2500000000000409 9.110547000664397 16.500000000002576
    vertex 1.2500000000000409 9.110547000664397 14.50000000000258
  endloop
endfacet
facet normal 1.0 2.850220391420904e-34 2.147797985987781e-18
  outer loop
    vertex 78.75000000000004 20.50000000000002 14.50000000000258
    vertex 78.75000000000004 1.2500000000000209 16.500000000002576
    vertex 78.75000000000004 1.2500000000000209 14.500000000002585
  endloop
endfacet
facet normal 1.0 2.850220391420904e-34 2.147797985987781e-18
  outer loop
    vertex 78.75000000000004 1.2500000000000209 16.500000000002576
    vertex 78.75000000000004 20.50000000000002 14.50000000000258
    vertex 78.75000000000004 20.50000000000002 16.500000000002576
  endloop
endfacet
facet normal 0.0 -1.0 8.056400445130504e-17
  outer loop
    vertex 80.00000000000003 20.50000000000002 16.500000000002576
    vertex 78.75000000000004 20.50000000000002 14.50000000000258
    vertex 80.00000000000003 20.50000000000002 14.50000000000258
  endloop
endfacet
facet normal 0.0 -1.0 8.056400445130504e-17
  outer loop
    vertex 78.75000000000004 20.50000000000002 14.50000000000258
    vertex 80.00000000000003 20.50000000000002 16.500000000002576
    vertex 78.75000000000004 20.50000000000002 16.500000000002576
  endloop
endfacet
facet normal -2.0804107714053207e-17 2.3762940929883473e-16 1.0
  outer loop
    vertex 1.2500000000000362 1.2500000000000204 16.500000000002576
    vertex 2.500000000000042 2.5000000000000195 16.500000000002583
    vertex 1.2500000000000409 9.110547000664397 16.500000000002576
  endloop
endfacet
facet normal -2.0804107714053207e-17 2.3762940929883473e-16 1.0
  outer loop
    vertex 2.500000000000042 2.5000000000000195 16.500000000002583
    vertex 1.2500000000000362 1.2500000000000204 16.500000000002576
    vertex 78.75000000000004 1.2500000000000209 16.500000000002576
  endloop
endfacet
facet normal -2.0804107714053207e-17 2.3762940929883473e-16 1.0
  outer loop
    vertex 1.2500000000000409 9.110547000664397 16.500000000002576
    vertex 2.500000000000042 2.5000000000000195 16.500000000002583
    vertex 2.500000000000037 9.110547000664397 16.500000000002576
  endloop
endfacet
facet normal -2.0804107714053207e-17 2.3762940929883473e-16 1.0
  outer loop
    vertex 2.500000000000042 2.5000000000000195 16.500000000002583
    vertex 78.75000000000004 1.2500000000000209 16.500000000002576
    vertex 77.50000000000006 2.5000000000000195 16.500000000002583
  endloop
endfacet
facet normal -2.0804107714053207e-17 2.3762940929883473e-16 1.0
  outer loop
    vertex 77.50000000000006 2.5000000000000195 16.500000000002583
    vertex 78.75000000000004 1.2500000000000209 16.500000000002576
    vertex 77.50000000000006 22.50000000000002 16.500000000002576
  endloop
endfacet
facet normal -2.0804107714053207e-17 2.3762940929883473e-16 1.0
  outer loop
    vertex 77.50000000000006 22.50000000000002 16.500000000002576
    vertex 78.75000000000004 1.2500000000000209 16.500000000002576
    vertex 78.75000000000004 20.50000000000002 16.500000000002576
  endloop
endfacet
facet normal -2.0804107714053207e-17 2.3762940929883473e-16 1.0
  outer loop
    vertex 77.50000000000006 22.50000000000002 16.500000000002576
    vertex 78.75000000000004 20.50000000000002 16.500000000002576
    vertex 80.00000000000003 22.50000000000002 16.500000000002576
  endloop
endfacet
facet normal -2.0804107714053207e-17 2.3762940929883473e-16 1.0
  outer loop
    vertex 80.00000000000003 22.50000000000002 16.500000000002576
    vertex 78.75000000000004 20.50000000000002 16.500000000002576
    vertex 80.00000000000003 20.50000000000002 16.500000000002576
  endloop
endfacet
facet normal 0.0 1.0 6.383805783656589e-17
  outer loop
    vertex 78.75000000000004 29.500000000000014 16.500000000002576
    vertex 80.00000000000003 29.500000000000014 14.500000000002574
    vertex 78.75000000000004 29.500000000000014 14.500000000002574
  endloop
endfacet
facet normal 0.0 1.0 6.383805783656589e-17
  outer loop
    vertex 80.00000000000003 29.500000000000014 14.500000000002574
    vertex 78.75000000000004 29.500000000000014 16.500000000002576
    vertex 80.00000000000003 29.500000000000014 16.500000000002576
  endloop
endfacet
facet normal -2.072557956437988e-17 -2.3769827957113184e-16 1.0
  outer loop
    vertex 77.50000000000006 27.50000000000001 16.500000000002576
    vertex 78.75000000000004 29.500000000000014 16.500000000002576
    vertex 77.50000000000006 47.500000000000014 16.500000000002583
  endloop
endfacet
facet normal -2.072557956437988e-17 -2.3769827957113184e-16 1.0
  outer loop
    vertex 78.75000000000004 29.500000000000014 16.500000000002576
    vertex 77.50000000000006 27.50000000000001 16.500000000002576
    vertex 80.00000000000003 27.50000000000001 16.500000000002576
  endloop
endfacet
facet normal -2.072557956437988e-17 -2.3769827957113184e-16 1.0
  outer loop
    vertex 78.75000000000004 29.500000000000014 16.500000000002576
    vertex 80.00000000000003 27.50000000000001 16.500000000002576
    vertex 80.00000000000003 29.500000000000014 16.500000000002576
  endloop
endfacet
facet normal -2.072557956437988e-17 -2.3769827957113184e-16 1.0
  outer loop
    vertex 2.500000000000037 40.83245405292912 16.500000000002576
    vertex 1.2500000000000526 48.750000000000014 16.500000000002576
    vertex 1.2500000000000409 40.83245405292912 16.500000000002576
  endloop
endfacet
facet normal -2.072557956437988e-17 -2.3769827957113184e-16 1.0
  outer loop
    vertex 1.2500000000000526 48.750000000000014 16.500000000002576
    vertex 2.500000000000037 40.83245405292912 16.500000000002576
    vertex 2.500000000000042 47.500000000000014 16.500000000002583
  endloop
endfacet
facet normal -2.072557956437988e-17 -2.3769827957113184e-16 1.0
  outer loop
    vertex 1.2500000000000526 48.750000000000014 16.500000000002576
    vertex 2.500000000000042 47.500000000000014 16.500000000002583
    vertex 78.75000000000004 48.750000000000014 16.500000000002576
  endloop
endfacet
facet normal -2.072557956437988e-17 -2.3769827957113184e-16 1.0
  outer loop
    vertex 78.75000000000004 48.750000000000014 16.500000000002576
    vertex 2.500000000000042 47.500000000000014 16.500000000002583
    vertex 77.50000000000006 47.500000000000014 16.500000000002583
  endloop
endfacet
facet normal -2.072557956437988e-17 -2.3769827957113184e-16 1.0
  outer loop
    vertex 78.75000000000004 48.750000000000014 16.500000000002576
    vertex 77.50000000000006 47.500000000000014 16.500000000002583
    vertex 78.75000000000004 29.500000000000014 16.500000000002576
  endloop
endfacet
facet normal 0.0 0.0 1.0
  outer loop
    vertex 1.2500000000000409 19.110547000664386 14.50000000000258
    vertex 4.511946372076636e-14 27.832454052929148 14.50000000000258
    vertex 4.511946372076636e-14 19.110547000664386 14.50000000000258
  endloop
endfacet
facet normal 0.0 0.0 1.0
  outer loop
    vertex 4.511946372076636e-14 27.832454052929148 14.50000000000258
    vertex 1.2500000000000409 19.110547000664386 14.50000000000258
    vertex 1.2500000000000409 27.832454052929148 14.50000000000258
  endloop
endfacet
facet normal -1.0 -0.0 -0.0
  outer loop
    vertex 1.2500000000000409 27.832454052929148 16.500000000002576
    vertex 1.2500000000000409 19.110547000664386 14.50000000000258
    vertex 1.2500000000000409 19.110547000664386 16.500000000002576
  endloop
endfacet
facet normal -1.0 -0.0 -0.0
  outer loop
    vertex 1.2500000000000409 19.110547000664386 14.50000000000258
    vertex 1.2500000000000409 27.832454052929148 16.500000000002576
    vertex 1.2500000000000409 27.832454052929148 14.50000000000258
  endloop
endfacet
facet normal 0.0 1.0 3.2557290197132716e-14
  outer loop
    vertex 2.500000000000037 66.15703287929756 9.012274426114699
    vertex 1.2500000000000406 66.15703287929732 16.50000000000288
    vertex 2.500000000000037 66.15703287929732 16.50000000000288
  endloop
endfacet
facet normal 0.0 1.0 3.2557290197132716e-14
  outer loop
    vertex 1.2500000000000406 66.15703287929732 16.50000000000288
    vertex 4.5131092105238215e-14 66.15703287929725 18.5122744261147
    vertex 1.2500000000000406 66.15703287929725 18.5122744261147
  endloop
endfacet
facet normal 0.0 1.0 3.2557290197132716e-14
  outer loop
    vertex 4.5131092105238215e-14 66.15703287929725 18.5122744261147
    vertex 1.2500000000000406 66.15703287929732 16.50000000000288
    vertex 4.5131092105238215e-14 66.15703287929756 9.012274426114699
  endloop
endfacet
facet normal 0.0 1.0 3.2557290197132716e-14
  outer loop
    vertex 4.5131092105238215e-14 66.15703287929756 9.012274426114699
    vertex 1.2500000000000406 66.15703287929732 16.50000000000288
    vertex 2.500000000000037 66.15703287929756 9.012274426114699
  endloop
endfacet
facet normal 1.3769382010048308e-19 0.001418895837058278 0.9999989933667951
  outer loop
    vertex 1.2522683903922045 79.15514073404229 16.528638719517314
    vertex 2.5021713399667664 87.81908216156546 16.516345476718502
    vertex 1.252171339966769 87.81908216156546 16.516345476718502
  endloop
endfacet
facet normal 1.3769382010048308e-19 0.001418895837058278 0.9999989933667951
  outer loop
    vertex 2.5021713399667664 87.81908216156546 16.516345476718502
    vertex 1.2522683903922045 79.15514073404229 16.528638719517314
    vertex 2.5022683903922 79.15514073404229 16.528638719517314
  endloop
endfacet
facet normal 0.0 1.0 3.2557290197132716e-14
  outer loop
    vertex 77.50000000000006 59.489486932226875 1.500000000002679
    vertex 2.500000000000042 59.48948693222638 16.50000000000267
    vertex 77.50000000000006 59.48948693222638 16.50000000000267
  endloop
endfacet
facet normal 0.0 1.0 3.2557290197132716e-14
  outer loop
    vertex 2.500000000000042 59.48948693222638 16.50000000000267
    vertex 77.50000000000006 59.489486932226875 1.500000000002679
    vertex 2.500000000000042 59.489486932226875 1.500000000002679
  endloop
endfacet
facet normal 1.0 0.0 0.0
  outer loop
    vertex 80.00000000000003 86.48948693222631 18.50000000000355
    vertex 80.00000000000003 86.48948693222637 16.500000000003542
    vertex 80.00000000000003 106.98948693222628 18.500000000004217
  endloop
endfacet
facet normal 1.0 0.0 0.0
  outer loop
    vertex 80.00000000000003 106.98948693222628 18.500000000004217
    vertex 80.00000000000003 56.98948693222695 -0.9999999999974207
    vertex 80.00000000000003 106.98948693222694 -0.9999999999957964
  endloop
endfacet
facet normal 1.0 0.0 0.0
  outer loop
    vertex 80.00000000000003 56.98948693222695 -0.9999999999974207
    vertex 80.00000000000003 106.98948693222628 18.500000000004217
    vertex 80.00000000000003 83.23948693222644 14.334936490542338
  endloop
endfacet
facet normal 1.0 0.0 0.0
  outer loop
    vertex 80.00000000000003 83.23948693222644 14.334936490542338
    vertex 80.00000000000003 106.98948693222628 18.500000000004217
    vertex 80.00000000000003 86.48948693222637 16.500000000003542
  endloop
endfacet
facet normal 1.0 0.0 0.0
  outer loop
    vertex 80.00000000000003 83.23948693222644 14.334936490542338
    vertex 80.00000000000003 86.48948693222637 16.500000000003542
    vertex 80.00000000000003 83.75725388519282 14.732233047037084
  endloop
endfacet
facet normal 1.0 0.0 0.0
  outer loop
    vertex 80.00000000000003 83.75725388519282 14.732233047037084
    vertex 80.00000000000003 86.48948693222637 16.500000000003542
    vertex 80.00000000000003 84.1545504416875 15.250000000003466
  endloop
endfacet
facet normal 1.0 0.0 0.0
  outer loop
    vertex 80.00000000000003 84.1545504416875 15.250000000003466
    vertex 80.00000000000003 86.48948693222637 16.500000000003542
    vertex 80.00000000000003 84.40430149794906 15.852952387247177
  endloop
endfacet
facet normal 1.0 0.0 0.0
  outer loop
    vertex 80.00000000000003 84.40430149794906 15.852952387247177
    vertex 80.00000000000003 86.48948693222637 16.500000000003542
    vertex 80.00000000000003 84.48948693222637 16.500000000003478
  endloop
endfacet
facet normal 1.0 0.0 0.0
  outer loop
    vertex 80.00000000000003 56.98948693222695 -0.9999999999974207
    vertex 80.00000000000003 83.23948693222644 14.334936490542338
    vertex 80.00000000000003 82.63653454498277 14.085185434280747
  endloop
endfacet
facet normal 1.0 0.0 0.0
  outer loop
    vertex 80.00000000000003 56.98948693222695 -0.9999999999974207
    vertex 80.00000000000003 82.63653454498277 14.085185434280747
    vertex 80.00000000000003 81.98948693222647 14.000000000003386
  endloop
endfacet
facet normal 1.0 0.0 0.0
  outer loop
    vertex 80.00000000000003 56.98948693222695 -0.9999999999974207
    vertex 80.00000000000003 81.98948693222647 14.000000000003386
    vertex 80.00000000000003 81.34243931947016 14.085185434280705
  endloop
endfacet
facet normal 1.0 0.0 0.0
  outer loop
    vertex 80.00000000000003 56.98948693222695 -0.9999999999974207
    vertex 80.00000000000003 81.34243931947016 14.085185434280705
    vertex 80.00000000000003 80.73948693222644 14.334936490542258
  endloop
endfacet
facet normal 1.0 0.0 0.0
  outer loop
    vertex 80.00000000000003 56.98948693222695 -0.9999999999974207
    vertex 80.00000000000003 80.73948693222644 14.334936490542258
    vertex 80.00000000000003 80.22171997926007 14.732233047036969
  endloop
endfacet
facet normal 1.0 0.0 0.0
  outer loop
    vertex 80.00000000000003 56.98948693222695 -0.9999999999974207
    vertex 80.00000000000003 80.22171997926007 14.732233047036969
    vertex 80.00000000000003 79.82442342276532 15.250000000003327
  endloop
endfacet
facet normal 1.0 0.0 0.0
  outer loop
    vertex 80.00000000000003 56.98948693222695 -0.9999999999974207
    vertex 80.00000000000003 79.82442342276532 15.250000000003327
    vertex 80.00000000000003 79.57467236650372 15.852952387247015
  endloop
endfacet
facet normal 1.0 0.0 0.0
  outer loop
    vertex 80.00000000000003 56.98948693222695 -0.9999999999974207
    vertex 80.00000000000003 79.57467236650372 15.852952387247015
    vertex 80.00000000000003 79.48948693222638 16.50000000000332
  endloop
endfacet
facet normal 1.0 0.0 0.0
  outer loop
    vertex 80.00000000000003 56.98948693222695 -0.9999999999974207
    vertex 80.00000000000003 79.48948693222638 16.50000000000332
    vertex 80.00000000000003 77.48948693222638 16.50000000000325
  endloop
endfacet
facet normal 1.0 0.0 0.0
  outer loop
    vertex 80.00000000000003 56.98948693222695 -0.9999999999974207
    vertex 80.00000000000003 77.48948693222638 16.50000000000325
    vertex 80.00000000000003 77.48948693222631 18.500000000003247
  endloop
endfacet
facet normal 1.0 0.0 0.0
  outer loop
    vertex 80.00000000000003 56.98948693222695 -0.9999999999974207
    vertex 80.00000000000003 77.48948693222631 18.500000000003247
    vertex 80.00000000000003 56.98948693222632 18.500000000002583
  endloop
endfacet
facet normal 0.0 -0.6087614290087413 0.7933533402912195
  outer loop
    vertex 80.00000000000003 83.23948693222644 14.334936490542338
    vertex 77.50000000000006 83.75725388519282 14.732233047037084
    vertex 77.50000000000006 83.23948693222644 14.334936490542338
  endloop
endfacet
facet normal 0.0 -0.6087614290087413 0.7933533402912195
  outer loop
    vertex 77.50000000000006 83.75725388519282 14.732233047037084
    vertex 80.00000000000003 83.23948693222644 14.334936490542338
    vertex 80.00000000000003 83.75725388519282 14.732233047037084
  endloop
endfacet
facet normal 0.0 -0.79335334029126 0.6087614290086883
  outer loop
    vertex 77.50000000000006 83.75725388519282 14.732233047037084
    vertex 80.00000000000003 84.1545504416875 15.250000000003466
    vertex 77.50000000000006 84.1545504416875 15.250000000003466
  endloop
endfacet
facet normal 0.0 -0.79335334029126 0.6087614290086883
  outer loop
    vertex 80.00000000000003 84.1545504416875 15.250000000003466
    vertex 77.50000000000006 83.75725388519282 14.732233047037084
    vertex 80.00000000000003 83.75725388519282 14.732233047037084
  endloop
endfacet
facet normal 0.0 -0.3826834323651203 0.9238795325112741
  outer loop
    vertex 80.00000000000003 82.63653454498277 14.085185434280747
    vertex 77.50000000000006 83.23948693222644 14.334936490542338
    vertex 77.50000000000006 82.63653454498277 14.085185434280747
  endloop
endfacet
facet normal 0.0 -0.3826834323651203 0.9238795325112741
  outer loop
    vertex 77.50000000000006 83.23948693222644 14.334936490542338
    vertex 80.00000000000003 82.63653454498277 14.085185434280747
    vertex 80.00000000000003 83.23948693222644 14.334936490542338
  endloop
endfacet
facet normal 0.0 0.6087614290086979 0.7933533402912526
  outer loop
    vertex 80.00000000000003 80.22171997926007 14.732233047036969
    vertex 77.50000000000006 80.73948693222644 14.334936490542258
    vertex 77.50000000000006 80.22171997926007 14.732233047036969
  endloop
endfacet
facet normal 0.0 0.6087614290086979 0.7933533402912526
  outer loop
    vertex 77.50000000000006 80.73948693222644 14.334936490542258
    vertex 80.00000000000003 80.22171997926007 14.732233047036969
    vertex 80.00000000000003 80.73948693222644 14.334936490542258
  endloop
endfacet
facet normal 0.0 -1.0 -3.2557290197132716e-14
  outer loop
    vertex 2.500000000000042 104.48948693222688 1.5000000000041398
    vertex 77.50000000000006 104.48948693222638 16.500000000004135
    vertex 2.500000000000042 104.48948693222638 16.500000000004135
  endloop
endfacet
facet normal 0.0 -1.0 -3.2557290197132716e-14
  outer loop
    vertex 77.50000000000006 104.48948693222638 16.500000000004135
    vertex 2.500000000000042 104.48948693222688 1.5000000000041398
    vertex 77.50000000000006 104.48948693222688 1.5000000000041398
  endloop
endfacet
facet normal 0.0 -0.9238795325112967 0.382683432365066
  outer loop
    vertex 77.50000000000006 84.1545504416875 15.250000000003466
    vertex 80.00000000000003 84.40430149794906 15.852952387247177
    vertex 77.50000000000006 84.40430149794906 15.852952387247177
  endloop
endfacet
facet normal 0.0 -0.9238795325112967 0.382683432365066
  outer loop
    vertex 80.00000000000003 84.40430149794906 15.852952387247177
    vertex 77.50000000000006 84.1545504416875 15.250000000003466
    vertex 80.00000000000003 84.1545504416875 15.250000000003466
  endloop
endfacet
facet normal 0.0 -0.13052619222008413 0.9914448613738062
  outer loop
    vertex 80.00000000000003 81.98948693222647 14.000000000003386
    vertex 77.50000000000006 82.63653454498277 14.085185434280747
    vertex 77.50000000000006 81.98948693222647 14.000000000003386
  endloop
endfacet
facet normal 0.0 -0.13052619222008413 0.9914448613738062
  outer loop
    vertex 77.50000000000006 82.63653454498277 14.085185434280747
    vertex 80.00000000000003 81.98948693222647 14.000000000003386
    vertex 80.00000000000003 82.63653454498277 14.085185434280747
  endloop
endfacet
facet normal 0.0 0.9914448613738079 0.13052619222007142
  outer loop
    vertex 80.00000000000003 79.57467236650372 15.852952387247015
    vertex 77.50000000000006 79.48948693222638 16.50000000000332
    vertex 80.00000000000003 79.48948693222638 16.50000000000332
  endloop
endfacet
facet normal 0.0 0.9914448613738079 0.13052619222007142
  outer loop
    vertex 77.50000000000006 79.48948693222638 16.50000000000332
    vertex 80.00000000000003 79.57467236650372 15.852952387247015
    vertex 77.50000000000006 79.57467236650372 15.852952387247015
  endloop
endfacet
facet normal 0.0 0.13052619222001954 0.9914448613738146
  outer loop
    vertex 80.00000000000003 81.34243931947016 14.085185434280705
    vertex 77.50000000000006 81.98948693222647 14.000000000003386
    vertex 77.50000000000006 81.34243931947016 14.085185434280705
  endloop
endfacet
facet normal 0.0 0.13052619222001954 0.9914448613738146
  outer loop
    vertex 77.50000000000006 81.98948693222647 14.000000000003386
    vertex 80.00000000000003 81.34243931947016 14.085185434280705
    vertex 80.00000000000003 81.98948693222647 14.000000000003386
  endloop
endfacet
facet normal 0.0 -0.9914448613738164 0.13052619222000683
  outer loop
    vertex 77.50000000000006 84.40430149794906 15.852952387247177
    vertex 80.00000000000003 84.48948693222637 16.500000000003478
    vertex 77.50000000000006 84.48948693222637 16.500000000003478
  endloop
endfacet
facet normal 0.0 -0.9914448613738164 0.13052619222000683
  outer loop
    vertex 80.00000000000003 84.48948693222637 16.500000000003478
    vertex 77.50000000000006 84.40430149794906 15.852952387247177
    vertex 80.00000000000003 84.40430149794906 15.852952387247177
  endloop
endfacet
facet normal 0.0 0.38268343236506014 0.923879532511299
  outer loop
    vertex 80.00000000000003 80.73948693222644 14.334936490542258
    vertex 77.50000000000006 81.34243931947016 14.085185434280705
    vertex 77.50000000000006 80.73948693222644 14.334936490542258
  endloop
endfacet
facet normal 0.0 0.38268343236506014 0.923879532511299
  outer loop
    vertex 77.50000000000006 81.34243931947016 14.085185434280705
    vertex 80.00000000000003 80.73948693222644 14.334936490542258
    vertex 80.00000000000003 81.34243931947016 14.085185434280705
  endloop
endfacet
facet normal 0.0 -3.2557290197132716e-14 1.0
  outer loop
    vertex 77.50000000000006 59.489486932226875 1.500000000002679
    vertex 2.500000000000042 104.48948693222688 1.5000000000041398
    vertex 2.500000000000042 59.489486932226875 1.500000000002679
  endloop
endfacet
facet normal 0.0 -3.2557290197132716e-14 1.0
  outer loop
    vertex 2.500000000000042 104.48948693222688 1.5000000000041398
    vertex 77.50000000000006 59.489486932226875 1.500000000002679
    vertex 77.50000000000006 104.48948693222688 1.5000000000041398
  endloop
endfacet
facet normal 0.0 3.2557290197132716e-14 -1.0
  outer loop
    vertex 80.00000000000003 106.98948693222694 -0.9999999999957964
    vertex 4.511946395068517e-14 56.98948693222695 -0.9999999999974207
    vertex 4.511946395068517e-14 106.98948693222694 -0.9999999999957964
  endloop
endfacet
facet normal 0.0 3.2557290197132716e-14 -1.0
  outer loop
    vertex 4.511946395068517e-14 56.98948693222695 -0.9999999999974207
    vertex 80.00000000000003 106.98948693222694 -0.9999999999957964
    vertex 80.00000000000003 56.98948693222695 -0.9999999999974207
  endloop
endfacet
facet normal 0.0 1.0 3.2557290197132716e-14
  outer loop
    vertex 80.00000000000003 106.98948693222694 -0.9999999999957964
    vertex 4.510354020016016e-14 106.98948693222628 18.500000000004217
    vertex 80.00000000000003 106.98948693222628 18.500000000004217
  endloop
endfacet
facet normal 0.0 1.0 3.2557290197132716e-14
  outer loop
    vertex 4.510354020016016e-14 106.98948693222628 18.500000000004217
    vertex 80.00000000000003 106.98948693222694 -0.9999999999957964
    vertex 4.511946395068517e-14 106.98948693222694 -0.9999999999957964
  endloop
endfacet
facet normal 0.0 -1.0 -3.2557290197132716e-14
  outer loop
    vertex 4.511946395068517e-14 56.98948693222695 -0.9999999999974207
    vertex 80.00000000000003 56.98948693222632 18.500000000002583
    vertex 4.511516835471319e-14 56.98948693222632 18.500000000002583
  endloop
endfacet
facet normal 0.0 -1.0 -3.2557290197132716e-14
  outer loop
    vertex 80.00000000000003 56.98948693222632 18.500000000002583
    vertex 4.511946395068517e-14 56.98948693222695 -0.9999999999974207
    vertex 80.00000000000003 56.98948693222695 -0.9999999999974207
  endloop
endfacet
facet normal 0.0 0.9238795325112719 0.3826834323651262
  outer loop
    vertex 80.00000000000003 79.82442342276532 15.250000000003327
    vertex 77.50000000000006 79.57467236650372 15.852952387247015
    vertex 80.00000000000003 79.57467236650372 15.852952387247015
  endloop
endfacet
facet normal 0.0 0.9238795325112719 0.3826834323651262
  outer loop
    vertex 77.50000000000006 79.57467236650372 15.852952387247015
    vertex 80.00000000000003 79.82442342276532 15.250000000003327
    vertex 77.50000000000006 79.82442342276532 15.250000000003327
  endloop
endfacet
facet normal 0.0 0.7933533402912121 0.608761429008751
  outer loop
    vertex 80.00000000000003 80.22171997926007 14.732233047036969
    vertex 77.50000000000006 79.82442342276532 15.250000000003327
    vertex 80.00000000000003 79.82442342276532 15.250000000003327
  endloop
endfacet
facet normal 0.0 0.7933533402912121 0.608761429008751
  outer loop
    vertex 77.50000000000006 79.82442342276532 15.250000000003327
    vertex 80.00000000000003 80.22171997926007 14.732233047036969
    vertex 77.50000000000006 80.22171997926007 14.732233047036969
  endloop
endfacet
facet normal 0.9999994008472309 1.2754762293099817e-05 0.0010945969555991942
  outer loop
    vertex 1.2500000000000409 87.82194098515545 18.500000000003592
    vertex 1.2522127284712117 87.87763844570112 16.516329182569855
    vertex 1.2500413885044834 87.88049726929111 18.49998370585495
  endloop
endfacet
facet normal 0.9999994008472309 1.2754762293099817e-05 0.0010945969555991942
  outer loop
    vertex 1.2522127284712117 87.87763844570112 16.516329182569855
    vertex 1.2500000000000409 87.82194098515545 18.500000000003592
    vertex 1.252171339966769 87.81908216156546 16.516345476718502
  endloop
endfacet
facet normal 0.9999994008472309 1.2754762293099817e-05 0.0010945969555991942
  outer loop
    vertex 1.252171339966769 87.81908216156546 16.516345476718502
    vertex 1.2500000000000409 87.82194098515545 18.500000000003592
    vertex 1.2500970504254763 79.1579995576323 18.51229324280241
  endloop
endfacet
facet normal 0.9999994008472309 1.2754762293099817e-05 0.0010945969555991942
  outer loop
    vertex 1.252171339966769 87.81908216156546 16.516345476718502
    vertex 1.2500970504254763 79.1579995576323 18.51229324280241
    vertex 1.2522683903922045 79.15514073404229 16.528638719517314
  endloop
endfacet
facet normal 0.0 -3.2557290197132716e-14 1.0
  outer loop
    vertex 3.9830363414403134e-05 87.87926102094768 13.99998308174781
    vertex 2.500000000000039 97.87893993156199 14.000000000003922
    vertex 4.510354020016016e-14 97.87893993156199 14.000000000003922
  endloop
endfacet
facet normal 0.0 -3.2557290197132716e-14 1.0
  outer loop
    vertex 2.500000000000039 97.87893993156199 14.000000000003922
    vertex 3.9830363414403134e-05 87.87926102094768 13.99998308174781
    vertex 2.500039830363408 87.87926102094768 13.99998308174781
  endloop
endfacet
facet normal 0.0 -1.0 -3.2557290197132716e-14
  outer loop
    vertex 4.510354020016016e-14 97.87893993156199 14.000000000003922
    vertex 1.2500000000000409 97.87893993156185 18.50000000000392
    vertex 4.510354020016016e-14 97.87893993156185 18.50000000000392
  endloop
endfacet
facet normal 0.0 -1.0 -3.2557290197132716e-14
  outer loop
    vertex 1.2500000000000409 97.87893993156185 18.50000000000392
    vertex 4.510354020016016e-14 97.87893993156199 14.000000000003922
    vertex 1.2500000000000409 97.87893993156192 16.50000000000391
  endloop
endfacet
facet normal 0.0 -1.0 -3.2557290197132716e-14
  outer loop
    vertex 1.2500000000000409 97.87893993156192 16.50000000000391
    vertex 4.510354020016016e-14 97.87893993156199 14.000000000003922
    vertex 2.500000000000037 97.87893993156192 16.50000000000391
  endloop
endfacet
facet normal 0.0 -1.0 -3.2557290197132716e-14
  outer loop
    vertex 2.500000000000037 97.87893993156192 16.50000000000391
    vertex 4.510354020016016e-14 97.87893993156199 14.000000000003922
    vertex 2.500000000000039 97.87893993156199 14.000000000003922
  endloop
endfacet
facet normal -1.287912615137454e-18 -3.2557290197132716e-14 1.0
  outer loop
    vertex 2.500000000000037 66.15703287929756 9.012274426114699
    vertex 9.70504254808927e-05 79.1579995576326 9.012293242802402
    vertex 4.5131092105238215e-14 66.15703287929756 9.012274426114699
  endloop
endfacet
facet normal -1.287912615137454e-18 -3.2557290197132716e-14 1.0
  outer loop
    vertex 9.70504254808927e-05 79.1579995576326 9.012293242802402
    vertex 2.500000000000037 66.15703287929756 9.012274426114699
    vertex 2.5000970504254725 79.1579995576326 9.012293242802402
  endloop
endfacet
facet normal 0.9999999987536428 6.103794675918034e-07 -4.992336382479128e-05
  outer loop
    vertex 2.500000000000037 97.87893993156192 16.50000000000391
    vertex 2.500000000000039 97.87893993156199 14.000000000003922
    vertex 2.500000000000042 104.48948693222638 16.500000000004135
  endloop
endfacet
facet normal 0.9999999987536428 6.103794675918034e-07 -4.992336382479128e-05
  outer loop
    vertex 2.5022683903922 79.15514073404229 16.528638719517314
    vertex 2.5000970504254725 79.1579995576326 9.012293242802402
    vertex 2.5021713399667664 87.81908216156546 16.516345476718502
  endloop
endfacet
facet normal 0.9999999987536428 6.103794675918034e-07 -4.992336382479128e-05
  outer loop
    vertex 2.500000000000042 104.48948693222688 1.5000000000041398
    vertex 2.500000000000039 97.87893993156199 14.000000000003922
    vertex 2.500000000000042 59.489486932226875 1.500000000002679
  endloop
endfacet
facet normal 0.9999999987536428 6.103794675918034e-07 -4.992336382479128e-05
  outer loop
    vertex 2.500000000000039 97.87893993156199 14.000000000003922
    vertex 2.500000000000042 104.48948693222688 1.5000000000041398
    vertex 2.500000000000042 104.48948693222638 16.500000000004135
  endloop
endfacet
facet normal 0.9999999987536428 6.103794675918034e-07 -4.992336382479128e-05
  outer loop
    vertex 2.500000000000042 59.489486932226875 1.500000000002679
    vertex 2.500000000000039 97.87893993156199 14.000000000003922
    vertex 2.5000970504254725 79.1579995576326 9.012293242802402
  endloop
endfacet
facet normal 0.9999999987536428 6.103794675918034e-07 -4.992336382479128e-05
  outer loop
    vertex 2.5000970504254725 79.1579995576326 9.012293242802402
    vertex 2.500000000000039 97.87893993156199 14.000000000003922
    vertex 2.500039830363408 87.87926102094768 13.99998308174781
  endloop
endfacet
facet normal 0.9999999987536428 6.103794675918034e-07 -4.992336382479128e-05
  outer loop
    vertex 2.5000970504254725 79.1579995576326 9.012293242802402
    vertex 2.500039830363408 87.87926102094768 13.99998308174781
    vertex 2.5022127284712083 87.87763844570112 16.516329182569855
  endloop
endfacet
facet normal 0.9999999987536428 6.103794675918034e-07 -4.992336382479128e-05
  outer loop
    vertex 2.5000970504254725 79.1579995576326 9.012293242802402
    vertex 2.5022127284712083 87.87763844570112 16.516329182569855
    vertex 2.5021713399667664 87.81908216156546 16.516345476718502
  endloop
endfacet
facet normal 0.9999999987536428 6.103794675918034e-07 -4.992336382479128e-05
  outer loop
    vertex 2.500000000000042 59.489486932226875 1.500000000002679
    vertex 2.5000970504254725 79.1579995576326 9.012293242802402
    vertex 2.500000000000037 66.15703287929756 9.012274426114699
  endloop
endfacet
facet normal 0.9999999987536428 6.103794675918034e-07 -4.992336382479128e-05
  outer loop
    vertex 2.500000000000042 59.489486932226875 1.500000000002679
    vertex 2.500000000000037 66.15703287929756 9.012274426114699
    vertex 2.500000000000037 66.15703287929732 16.50000000000288
  endloop
endfacet
facet normal 0.9999999987536428 6.103794675918034e-07 -4.992336382479128e-05
  outer loop
    vertex 2.500000000000042 59.489486932226875 1.500000000002679
    vertex 2.500000000000037 66.15703287929732 16.50000000000288
    vertex 2.500000000000042 59.48948693222638 16.50000000000267
  endloop
endfacet
facet normal 0.0 -3.2557290197132716e-14 1.0
  outer loop
    vertex 80.00000000000003 86.48948693222631 18.50000000000355
    vertex 78.75000000000004 105.7394869322263 18.500000000004174
    vertex 78.75000000000004 86.48948693222631 18.50000000000355
  endloop
endfacet
facet normal 0.0 -3.2557290197132716e-14 1.0
  outer loop
    vertex 1.2500000000000409 97.87893993156185 18.50000000000392
    vertex 4.510354020016016e-14 106.98948693222628 18.500000000004217
    vertex 4.510354020016016e-14 97.87893993156185 18.50000000000392
  endloop
endfacet
facet normal 0.0 -3.2557290197132716e-14 1.0
  outer loop
    vertex 4.510354020016016e-14 106.98948693222628 18.500000000004217
    vertex 1.2500000000000409 97.87893993156185 18.50000000000392
    vertex 1.2500000000000526 105.7394869322263 18.500000000004174
  endloop
endfacet
facet normal 0.0 -3.2557290197132716e-14 1.0
  outer loop
    vertex 4.510354020016016e-14 106.98948693222628 18.500000000004217
    vertex 1.2500000000000526 105.7394869322263 18.500000000004174
    vertex 80.00000000000003 106.98948693222628 18.500000000004217
  endloop
endfacet
facet normal 0.0 -3.2557290197132716e-14 1.0
  outer loop
    vertex 80.00000000000003 106.98948693222628 18.500000000004217
    vertex 1.2500000000000526 105.7394869322263 18.500000000004174
    vertex 78.75000000000004 105.7394869322263 18.500000000004174
  endloop
endfacet
facet normal 0.0 -3.2557290197132716e-14 1.0
  outer loop
    vertex 80.00000000000003 106.98948693222628 18.500000000004217
    vertex 78.75000000000004 105.7394869322263 18.500000000004174
    vertex 80.00000000000003 86.48948693222631 18.50000000000355
  endloop
endfacet
facet normal -0.999999999999934 -1.9171415169902276e-07 3.088387874448932e-07
  outer loop
    vertex 7.619857668788614e-07 87.82316522290961 18.50000015393697
    vertex 4.2150490209187676e-05 87.88172150704528 18.49998385978833
    vertex 3.9830363414403134e-05 87.87926102094768 13.99998308174781
  endloop
endfacet
facet normal -0.999999999999934 -1.9171415169902276e-07 3.088387874448932e-07
  outer loop
    vertex 4.511946395068517e-14 106.98948693222694 -0.9999999999957964
    vertex 4.510354020016016e-14 97.87893993156199 14.000000000003922
    vertex 4.510354020016016e-14 106.98948693222628 18.500000000004217
  endloop
endfacet
facet normal -0.999999999999934 -1.9171415169902276e-07 3.088387874448932e-07
  outer loop
    vertex 4.510354020016016e-14 97.87893993156199 14.000000000003922
    vertex 4.511946395068517e-14 106.98948693222694 -0.9999999999957964
    vertex 4.511946395068517e-14 56.98948693222695 -0.9999999999974207
  endloop
endfacet
facet normal -0.999999999999934 -1.9171415169902276e-07 3.088387874448932e-07
  outer loop
    vertex 4.510354020016016e-14 97.87893993156199 14.000000000003922
    vertex 4.511946395068517e-14 56.98948693222695 -0.9999999999974207
    vertex 9.70504254808927e-05 79.1579995576326 9.012293242802402
  endloop
endfacet
facet normal -0.999999999999934 -1.9171415169902276e-07 3.088387874448932e-07
  outer loop
    vertex 4.510354020016016e-14 97.87893993156199 14.000000000003922
    vertex 9.70504254808927e-05 79.1579995576326 9.012293242802402
    vertex 3.9830363414403134e-05 87.87926102094768 13.99998308174781
  endloop
endfacet
facet normal -0.999999999999934 -1.9171415169902276e-07 3.088387874448932e-07
  outer loop
    vertex 3.9830363414403134e-05 87.87926102094768 13.99998308174781
    vertex 9.70504254808927e-05 79.1579995576326 9.012293242802402
    vertex 7.619857668788614e-07 87.82316522290961 18.50000015393697
  endloop
endfacet
facet normal -0.999999999999934 -1.9171415169902276e-07 3.088387874448932e-07
  outer loop
    vertex 9.70504254808927e-05 79.1579995576326 9.012293242802402
    vertex 4.511946395068517e-14 56.98948693222695 -0.9999999999974207
    vertex 4.5131092105238215e-14 66.15703287929756 9.012274426114699
  endloop
endfacet
facet normal -0.999999999999934 -1.9171415169902276e-07 3.088387874448932e-07
  outer loop
    vertex 4.5131092105238215e-14 66.15703287929756 9.012274426114699
    vertex 4.511946395068517e-14 56.98948693222695 -0.9999999999974207
    vertex 4.5131092105238215e-14 66.15703287929725 18.5122744261147
  endloop
endfacet
facet normal -0.999999999999934 -1.9171415169902276e-07 3.088387874448932e-07
  outer loop
    vertex 4.5131092105238215e-14 66.15703287929725 18.5122744261147
    vertex 4.511946395068517e-14 56.98948693222695 -0.9999999999974207
    vertex 4.511516835471319e-14 56.98948693222632 18.500000000002583
  endloop
endfacet
facet normal -0.999999999999934 -1.9171415169902276e-07 3.088387874448932e-07
  outer loop
    vertex 9.705042548087677e-05 79.1579995576323 18.51229324280241
    vertex 7.619857668788614e-07 87.82316522290961 18.50000015393697
    vertex 9.70504254808927e-05 79.1579995576326 9.012293242802402
  endloop
endfacet
facet normal -0.999999999999934 -1.9171415169902276e-07 3.088387874448932e-07
  outer loop
    vertex 4.510354020016016e-14 97.87893993156185 18.50000000000392
    vertex 4.510354020016016e-14 106.98948693222628 18.500000000004217
    vertex 4.510354020016016e-14 97.87893993156199 14.000000000003922
  endloop
endfacet
facet normal 0.0 1.0 3.247672619268141e-14
  outer loop
    vertex 80.00000000000003 77.48948693222638 16.50000000000325
    vertex 78.75000000000004 77.48948693222631 18.500000000003247
    vertex 80.00000000000003 77.48948693222631 18.500000000003247
  endloop
endfacet
facet normal 0.0 1.0 3.247672619268141e-14
  outer loop
    vertex 78.75000000000004 77.48948693222631 18.500000000003247
    vertex 80.00000000000003 77.48948693222638 16.50000000000325
    vertex 78.75000000000004 77.48948693222638 16.50000000000325
  endloop
endfacet
facet normal -2.077473930086625e-17 -3.2315449786216574e-14 1.0
  outer loop
    vertex 1.2500000000000362 58.23948693222639 16.500000000002625
    vertex 2.500000000000042 59.48948693222638 16.50000000000267
    vertex 1.2500000000000406 66.15703287929732 16.50000000000288
  endloop
endfacet
facet normal -2.077473930086625e-17 -3.2315449786216574e-14 1.0
  outer loop
    vertex 2.500000000000042 59.48948693222638 16.50000000000267
    vertex 1.2500000000000362 58.23948693222639 16.500000000002625
    vertex 78.75000000000004 58.23948693222639 16.500000000002625
  endloop
endfacet
facet normal -2.077473930086625e-17 -3.2315449786216574e-14 1.0
  outer loop
    vertex 1.2500000000000406 66.15703287929732 16.50000000000288
    vertex 2.500000000000042 59.48948693222638 16.50000000000267
    vertex 2.500000000000037 66.15703287929732 16.50000000000288
  endloop
endfacet
facet normal -2.077473930086625e-17 -3.2315449786216574e-14 1.0
  outer loop
    vertex 2.500000000000042 59.48948693222638 16.50000000000267
    vertex 78.75000000000004 58.23948693222639 16.500000000002625
    vertex 77.50000000000006 59.48948693222638 16.50000000000267
  endloop
endfacet
facet normal -2.077473930086625e-17 -3.2315449786216574e-14 1.0
  outer loop
    vertex 77.50000000000006 59.48948693222638 16.50000000000267
    vertex 78.75000000000004 58.23948693222639 16.500000000002625
    vertex 77.50000000000006 79.48948693222638 16.50000000000332
  endloop
endfacet
facet normal -2.077473930086625e-17 -3.2315449786216574e-14 1.0
  outer loop
    vertex 77.50000000000006 79.48948693222638 16.50000000000332
    vertex 78.75000000000004 58.23948693222639 16.500000000002625
    vertex 78.75000000000004 77.48948693222638 16.50000000000325
  endloop
endfacet
facet normal -2.077473930086625e-17 -3.2315449786216574e-14 1.0
  outer loop
    vertex 77.50000000000006 79.48948693222638 16.50000000000332
    vertex 78.75000000000004 77.48948693222638 16.50000000000325
    vertex 80.00000000000003 79.48948693222638 16.50000000000332
  endloop
endfacet
facet normal -2.077473930086625e-17 -3.2315449786216574e-14 1.0
  outer loop
    vertex 80.00000000000003 79.48948693222638 16.50000000000332
    vertex 78.75000000000004 77.48948693222638 16.50000000000325
    vertex 80.00000000000003 77.48948693222638 16.50000000000325
  endloop
endfacet
facet normal 0.0 -1.0 -3.262112825496928e-14
  outer loop
    vertex 78.75000000000004 86.48948693222637 16.500000000003542
    vertex 80.00000000000003 86.48948693222631 18.50000000000355
    vertex 78.75000000000004 86.48948693222631 18.50000000000355
  endloop
endfacet
facet normal 0.0 -1.0 -3.262112825496928e-14
  outer loop
    vertex 80.00000000000003 86.48948693222631 18.50000000000355
    vertex 78.75000000000004 86.48948693222637 16.500000000003542
    vertex 80.00000000000003 86.48948693222637 16.500000000003542
  endloop
endfacet
facet normal -2.0554242207998295e-17 -3.279932386849749e-14 1.0
  outer loop
    vertex 77.50000000000006 84.48948693222637 16.500000000003478
    vertex 78.75000000000004 86.48948693222637 16.500000000003542
    vertex 77.50000000000006 104.48948693222638 16.500000000004135
  endloop
endfacet
facet normal -2.0554242207998295e-17 -3.279932386849749e-14 1.0
  outer loop
    vertex 78.75000000000004 86.48948693222637 16.500000000003542
    vertex 77.50000000000006 84.48948693222637 16.500000000003478
    vertex 80.00000000000003 84.48948693222637 16.500000000003478
  endloop
endfacet
facet normal -2.0554242207998295e-17 -3.279932386849749e-14 1.0
  outer loop
    vertex 78.75000000000004 86.48948693222637 16.500000000003542
    vertex 80.00000000000003 84.48948693222637 16.500000000003478
    vertex 80.00000000000003 86.48948693222637 16.500000000003542
  endloop
endfacet
facet normal -2.0554242207998295e-17 -3.279932386849749e-14 1.0
  outer loop
    vertex 2.500000000000037 97.87893993156192 16.50000000000391
    vertex 1.2500000000000526 105.73948693222637 16.50000000000417
    vertex 1.2500000000000409 97.87893993156192 16.50000000000391
  endloop
endfacet
facet normal -2.0554242207998295e-17 -3.279932386849749e-14 1.0
  outer loop
    vertex 1.2500000000000526 105.73948693222637 16.50000000000417
    vertex 2.500000000000037 97.87893993156192 16.50000000000391
    vertex 2.500000000000042 104.48948693222638 16.500000000004135
  endloop
endfacet
facet normal -2.0554242207998295e-17 -3.279932386849749e-14 1.0
  outer loop
    vertex 1.2500000000000526 105.73948693222637 16.50000000000417
    vertex 2.500000000000042 104.48948693222638 16.500000000004135
    vertex 78.75000000000004 105.73948693222637 16.50000000000417
  endloop
endfacet
facet normal -2.0554242207998295e-17 -3.279932386849749e-14 1.0
  outer loop
    vertex 78.75000000000004 105.73948693222637 16.50000000000417
    vertex 2.500000000000042 104.48948693222638 16.500000000004135
    vertex 77.50000000000006 104.48948693222638 16.500000000004135
  endloop
endfacet
facet normal -2.0554242207998295e-17 -3.279932386849749e-14 1.0
  outer loop
    vertex 78.75000000000004 105.73948693222637 16.50000000000417
    vertex 77.50000000000006 104.48948693222638 16.500000000004135
    vertex 78.75000000000004 86.48948693222637 16.500000000003542
  endloop
endfacet
facet normal -1.0 2.6027365855850232e-31 -7.961875262506867e-18
  outer loop
    vertex 78.75000000000004 86.48948693222637 16.500000000003542
    vertex 78.75000000000004 105.7394869322263 18.500000000004174
    vertex 78.75000000000004 105.73948693222637 16.50000000000417
  endloop
endfacet
facet normal -1.0 2.6027365855850232e-31 -7.961875262506867e-18
  outer loop
    vertex 78.75000000000004 105.7394869322263 18.500000000004174
    vertex 78.75000000000004 86.48948693222637 16.500000000003542
    vertex 78.75000000000004 86.48948693222631 18.50000000000355
  endloop
endfacet
facet normal 0.0 -1.0 -3.262112825496928e-14
  outer loop
    vertex 1.2500000000000526 105.73948693222637 16.50000000000417
    vertex 78.75000000000004 105.7394869322263 18.500000000004174
    vertex 1.2500000000000526 105.7394869322263 18.500000000004174
  endloop
endfacet
facet normal 0.0 -1.0 -3.262112825496928e-14
  outer loop
    vertex 78.75000000000004 105.7394869322263 18.500000000004174
    vertex 1.2500000000000526 105.73948693222637 16.50000000000417
    vertex 78.75000000000004 105.73948693222637 16.50000000000417
  endloop
endfacet
facet normal 1.0 -1.4914481993044765e-15 -4.867127470592645e-29
  outer loop
    vertex 1.2500000000000526 105.7394869322263 18.500000000004174
    vertex 1.2500000000000409 97.87893993156192 16.50000000000391
    vertex 1.2500000000000526 105.73948693222637 16.50000000000417
  endloop
endfacet
facet normal 1.0 -1.4914481993044765e-15 -4.867127470592645e-29
  outer loop
    vertex 1.2500000000000409 97.87893993156192 16.50000000000391
    vertex 1.2500000000000526 105.7394869322263 18.500000000004174
    vertex 1.2500000000000409 97.87893993156185 18.50000000000392
  endloop
endfacet
facet normal -1.0 6.964146027547928e-32 -2.1477979859877808e-18
  outer loop
    vertex 78.75000000000004 58.23948693222639 16.500000000002625
    vertex 78.75000000000004 77.48948693222631 18.500000000003247
    vertex 78.75000000000004 77.48948693222638 16.50000000000325
  endloop
endfacet
facet normal -1.0 6.964146027547928e-32 -2.1477979859877808e-18
  outer loop
    vertex 78.75000000000004 77.48948693222631 18.500000000003247
    vertex 78.75000000000004 58.23948693222639 16.500000000002625
    vertex 78.75000000000004 58.23948693222632 18.500000000002625
  endloop
endfacet
facet normal 1.0 -5.980687819985687e-16 1.2025738961894035e-19
  outer loop
    vertex 1.2500000000000406 66.15703287929725 18.5122744261147
    vertex 1.2500000000000362 58.23948693222639 16.500000000002625
    vertex 1.2500000000000406 66.15703287929732 16.50000000000288
  endloop
endfacet
facet normal 1.0 -5.980687819985687e-16 1.2025738961894035e-19
  outer loop
    vertex 1.2500000000000362 58.23948693222639 16.500000000002625
    vertex 1.2500000000000406 66.15703287929725 18.5122744261147
    vertex 1.2500000000000362 58.23948693222632 18.500000000002625
  endloop
endfacet
facet normal 0.0 1.0 3.247672619268141e-14
  outer loop
    vertex 78.75000000000004 58.23948693222639 16.500000000002625
    vertex 1.2500000000000362 58.23948693222632 18.500000000002625
    vertex 78.75000000000004 58.23948693222632 18.500000000002625
  endloop
endfacet
facet normal 0.0 1.0 3.247672619268141e-14
  outer loop
    vertex 1.2500000000000362 58.23948693222632 18.500000000002625
    vertex 78.75000000000004 58.23948693222639 16.500000000002625
    vertex 1.2500000000000362 58.23948693222639 16.500000000002625
  endloop
endfacet
facet normal 9.398743704641499e-05 -0.00022043227410888593 0.9999999712879867
  outer loop
    vertex 1.2500000000000406 66.15703287929725 18.5122744261147
    vertex 4.5131092105238215e-14 66.15703287929725 18.5122744261147
    vertex 1.2500000000000362 58.23948693222632 18.500000000002625
  endloop
endfacet
facet normal 9.398743704641499e-05 -0.00022043227410888593 0.9999999712879867
  outer loop
    vertex 4.511516835471319e-14 56.98948693222632 18.500000000002583
    vertex 1.2500000000000362 58.23948693222632 18.500000000002625
    vertex 4.5131092105238215e-14 66.15703287929725 18.5122744261147
  endloop
endfacet
facet normal 9.398743704641499e-05 -0.00022043227410888593 0.9999999712879867
  outer loop
    vertex 1.2500000000000362 58.23948693222632 18.500000000002625
    vertex 4.511516835471319e-14 56.98948693222632 18.500000000002583
    vertex 80.00000000000003 56.98948693222632 18.500000000002583
  endloop
endfacet
facet normal 9.398743704641499e-05 -0.00022043227410888593 0.9999999712879867
  outer loop
    vertex 1.2500000000000362 58.23948693222632 18.500000000002625
    vertex 80.00000000000003 56.98948693222632 18.500000000002583
    vertex 78.75000000000004 58.23948693222632 18.500000000002625
  endloop
endfacet
facet normal 9.398743704641499e-05 -0.00022043227410888593 0.9999999712879867
  outer loop
    vertex 78.75000000000004 58.23948693222632 18.500000000002625
    vertex 80.00000000000003 56.98948693222632 18.500000000002583
    vertex 78.75000000000004 77.48948693222631 18.500000000003247
  endloop
endfacet
facet normal 9.398743704641499e-05 -0.00022043227410888593 0.9999999712879867
  outer loop
    vertex 78.75000000000004 77.48948693222631 18.500000000003247
    vertex 80.00000000000003 56.98948693222632 18.500000000002583
    vertex 80.00000000000003 77.48948693222631 18.500000000003247
  endloop
endfacet
facet normal -1.0 -0.0 0.0
  outer loop
    vertex 77.50000000000006 59.489486932226875 1.500000000002679
    vertex 77.50000000000006 104.48948693222638 16.500000000004135
    vertex 77.50000000000006 104.48948693222688 1.5000000000041398
  endloop
endfacet
facet normal -1.0 -0.0 0.0
  outer loop
    vertex 77.50000000000006 104.48948693222638 16.500000000004135
    vertex 77.50000000000006 59.489486932226875 1.500000000002679
    vertex 77.50000000000006 83.23948693222644 14.334936490542338
  endloop
endfacet
facet normal -1.0 -0.0 0.0
  outer loop
    vertex 77.50000000000006 104.48948693222638 16.500000000004135
    vertex 77.50000000000006 83.23948693222644 14.334936490542338
    vertex 77.50000000000006 83.75725388519282 14.732233047037084
  endloop
endfacet
facet normal -1.0 -0.0 0.0
  outer loop
    vertex 77.50000000000006 104.48948693222638 16.500000000004135
    vertex 77.50000000000006 83.75725388519282 14.732233047037084
    vertex 77.50000000000006 84.1545504416875 15.250000000003466
  endloop
endfacet
facet normal -1.0 -0.0 0.0
  outer loop
    vertex 77.50000000000006 104.48948693222638 16.500000000004135
    vertex 77.50000000000006 84.1545504416875 15.250000000003466
    vertex 77.50000000000006 84.40430149794906 15.852952387247177
  endloop
endfacet
facet normal -1.0 -0.0 0.0
  outer loop
    vertex 77.50000000000006 104.48948693222638 16.500000000004135
    vertex 77.50000000000006 84.40430149794906 15.852952387247177
    vertex 77.50000000000006 84.48948693222637 16.500000000003478
  endloop
endfacet
facet normal -1.0 -0.0 0.0
  outer loop
    vertex 77.50000000000006 83.23948693222644 14.334936490542338
    vertex 77.50000000000006 59.489486932226875 1.500000000002679
    vertex 77.50000000000006 82.63653454498277 14.085185434280747
  endloop
endfacet
facet normal -1.0 -0.0 0.0
  outer loop
    vertex 77.50000000000006 82.63653454498277 14.085185434280747
    vertex 77.50000000000006 59.489486932226875 1.500000000002679
    vertex 77.50000000000006 81.98948693222647 14.000000000003386
  endloop
endfacet
facet normal -1.0 -0.0 0.0
  outer loop
    vertex 77.50000000000006 81.98948693222647 14.000000000003386
    vertex 77.50000000000006 59.489486932226875 1.500000000002679
    vertex 77.50000000000006 81.34243931947016 14.085185434280705
  endloop
endfacet
facet normal -1.0 -0.0 0.0
  outer loop
    vertex 77.50000000000006 81.34243931947016 14.085185434280705
    vertex 77.50000000000006 59.489486932226875 1.500000000002679
    vertex 77.50000000000006 80.73948693222644 14.334936490542258
  endloop
endfacet
facet normal -1.0 -0.0 0.0
  outer loop
    vertex 77.50000000000006 80.73948693222644 14.334936490542258
    vertex 77.50000000000006 59.489486932226875 1.500000000002679
    vertex 77.50000000000006 80.22171997926007 14.732233047036969
  endloop
endfacet
facet normal -1.0 -0.0 0.0
  outer loop
    vertex 77.50000000000006 80.22171997926007 14.732233047036969
    vertex 77.50000000000006 59.489486932226875 1.500000000002679
    vertex 77.50000000000006 79.82442342276532 15.250000000003327
  endloop
endfacet
facet normal -1.0 -0.0 0.0
  outer loop
    vertex 77.50000000000006 79.82442342276532 15.250000000003327
    vertex 77.50000000000006 59.489486932226875 1.500000000002679
    vertex 77.50000000000006 79.57467236650372 15.852952387247015
  endloop
endfacet
facet normal -1.0 -0.0 0.0
  outer loop
    vertex 77.50000000000006 79.57467236650372 15.852952387247015
    vertex 77.50000000000006 59.489486932226875 1.500000000002679
    vertex 77.50000000000006 79.48948693222638 16.50000000000332
  endloop
endfacet
facet normal -1.0 -0.0 0.0
  outer loop
    vertex 77.50000000000006 79.48948693222638 16.50000000000332
    vertex 77.50000000000006 59.489486932226875 1.500000000002679
    vertex 77.50000000000006 59.48948693222638 16.50000000000267
  endloop
endfacet
facet normal 3.956764055403777e-07 0.0002782644403882802 0.9999999612843715
  outer loop
    vertex 1.2500000000000409 87.82194098515545 18.500000000003592
    vertex 4.2150490209187676e-05 87.88172150704528 18.49998385978833
    vertex 7.619857668788614e-07 87.82316522290961 18.50000015393697
  endloop
endfacet
facet normal 3.956764055403777e-07 0.0002782644403882802 0.9999999612843715
  outer loop
    vertex 4.2150490209187676e-05 87.88172150704528 18.49998385978833
    vertex 1.2500000000000409 87.82194098515545 18.500000000003592
    vertex 1.2500413885044834 87.88049726929111 18.49998370585495
  endloop
endfacet
facet normal 0.0 0.0002782647200585994 0.9999999612843722
  outer loop
    vertex 2.5021713399667664 87.81908216156546 16.516345476718502
    vertex 1.2522127284712117 87.87763844570112 16.516329182569855
    vertex 1.252171339966769 87.81908216156546 16.516345476718502
  endloop
endfacet
facet normal 0.0 0.0002782647200585994 0.9999999612843722
  outer loop
    vertex 1.2522127284712117 87.87763844570112 16.516329182569855
    vertex 2.5021713399667664 87.81908216156546 16.516345476718502
    vertex 2.5022127284712083 87.87763844570112 16.516329182569855
  endloop
endfacet
facet normal -0.0006200934683842418 -0.9999998005147306 -0.00012022724090805803
  outer loop
    vertex 9.70504254808927e-05 79.1579995576326 9.012293242802402
    vertex 1.2500970504254763 79.1579995576323 18.51229324280241
    vertex 9.705042548087677e-05 79.1579995576323 18.51229324280241
  endloop
endfacet
facet normal -0.0006200934683842418 -0.9999998005147306 -0.00012022724090805803
  outer loop
    vertex 1.2500970504254763 79.1579995576323 18.51229324280241
    vertex 9.70504254808927e-05 79.1579995576326 9.012293242802402
    vertex 1.2522683903922045 79.15514073404229 16.528638719517314
  endloop
endfacet
facet normal -0.0006200934683842418 -0.9999998005147306 -0.00012022724090805803
  outer loop
    vertex 1.2522683903922045 79.15514073404229 16.528638719517314
    vertex 9.70504254808927e-05 79.1579995576326 9.012293242802402
    vertex 2.5022683903922 79.15514073404229 16.528638719517314
  endloop
endfacet
facet normal -0.0006200934683842418 -0.9999998005147306 -0.00012022724090805803
  outer loop
    vertex 2.5022683903922 79.15514073404229 16.528638719517314
    vertex 9.70504254808927e-05 79.1579995576326 9.012293242802402
    vertex 2.5000970504254725 79.1579995576326 9.012293242802402
  endloop
endfacet
facet normal 0.0007068155555334106 0.9999997114902357 -0.0002782646505497013
  outer loop
    vertex 2.500039830363408 87.87926102094768 13.99998308174781
    vertex 1.2522127284712117 87.87763844570112 16.516329182569855
    vertex 2.5022127284712083 87.87763844570112 16.516329182569855
  endloop
endfacet
facet normal 0.0007068155555334106 0.9999997114902357 -0.0002782646505497013
  outer loop
    vertex 1.2500413885044834 87.88049726929111 18.49998370585495
    vertex 3.9830363414403134e-05 87.87926102094768 13.99998308174781
    vertex 4.2150490209187676e-05 87.88172150704528 18.49998385978833
  endloop
endfacet
facet normal 0.0007068155555334106 0.9999997114902357 -0.0002782646505497013
  outer loop
    vertex 3.9830363414403134e-05 87.87926102094768 13.99998308174781
    vertex 1.2500413885044834 87.88049726929111 18.49998370585495
    vertex 1.2522127284712117 87.87763844570112 16.516329182569855
  endloop
endfacet
facet normal 0.0007068155555334106 0.9999997114902357 -0.0002782646505497013
  outer loop
    vertex 3.9830363414403134e-05 87.87926102094768 13.99998308174781
    vertex 1.2522127284712117 87.87763844570112 16.516329182569855
    vertex 2.500039830363408 87.87926102094768 13.99998308174781
  endloop
endfacet
facet normal 7.563461898135355e-07 0.0014187867153004309 0.9999989935213358
  outer loop
    vertex 9.705042548087677e-05 79.1579995576323 18.51229324280241
    vertex 1.2500000000000409 87.82194098515545 18.500000000003592
    vertex 7.619857668788614e-07 87.82316522290961 18.50000015393697
  endloop
endfacet
facet normal 7.563461898135355e-07 0.0014187867153004309 0.9999989935213358
  outer loop
    vertex 1.2500000000000409 87.82194098515545 18.500000000003592
    vertex 9.705042548087677e-05 79.1579995576323 18.51229324280241
    vertex 1.2500970504254763 79.1579995576323 18.51229324280241
  endloop
endfacet
endsolid halvBoks
