solid motorHolder
facet normal -1.0 0.0 -6.767919558114913e-15
  outer loop
    vertex 0.49999999999996614 7.000000000000012 5.000000000000034
    vertex 0.49999999999999994 0.0 3.3839597790574563e-15
    vertex 0.49999999999996614 0.0 5.000000000000034
  endloop
endfacet
facet normal -1.0 0.0 -6.767919558114913e-15
  outer loop
    vertex 0.49999999999999994 0.0 3.3839597790574563e-15
    vertex 0.49999999999996614 7.000000000000012 5.000000000000034
    vertex 0.49999999999999994 7.000000000000012 3.3839597790574563e-15
  endloop
endfacet
facet normal 0.0 0.0 -1.0
  outer loop
    vertex 0.49999999999999994 7.000000000000012 3.3839597790574563e-15
    vertex 5.585786437626888 4.914213562373092 -2.255973186038318e-14
    vertex 0.49999999999999994 0.0 3.3839597790574563e-15
  endloop
endfacet
facet normal 0.0 0.0 -1.0
  outer loop
    vertex 5.585786437626888 4.914213562373092 -2.255973186038318e-14
    vertex 0.49999999999999994 7.000000000000012 3.3839597790574563e-15
    vertex 5.999999999999966 5.232050807568886 3.3839597790574766e-14
  endloop
endfacet
facet normal 0.0 0.0 -1.0
  outer loop
    vertex 5.999999999999966 5.232050807568886 3.3839597790574766e-14
    vertex 0.49999999999999994 7.000000000000012 3.3839597790574563e-15
    vertex 6.48236190979493 5.431851652578141 0.0
  endloop
endfacet
facet normal 0.0 0.0 -1.0
  outer loop
    vertex 6.48236190979493 5.431851652578141 0.0
    vertex 0.49999999999999994 7.000000000000012 3.3839597790574563e-15
    vertex 16.500000000000004 7.000000000000012 0.0
  endloop
endfacet
facet normal 0.0 0.0 -1.0
  outer loop
    vertex 0.49999999999999994 0.0 3.3839597790574563e-15
    vertex 5.585786437626888 4.914213562373092 -2.255973186038318e-14
    vertex 5.2679491924310975 4.499999999999992 -5.639932965095795e-15
  endloop
endfacet
facet normal 0.0 0.0 -1.0
  outer loop
    vertex 0.49999999999999994 0.0 3.3839597790574563e-15
    vertex 5.2679491924310975 4.499999999999992 -5.639932965095795e-15
    vertex 5.068148347421865 4.017638090205039 1.127986593019159e-14
  endloop
endfacet
facet normal 0.0 0.0 -1.0
  outer loop
    vertex 0.49999999999999994 0.0 3.3839597790574563e-15
    vertex 5.068148347421865 4.017638090205039 1.127986593019159e-14
    vertex 4.999999999999968 3.499999999999994 1.6919798895287383e-14
  endloop
endfacet
facet normal 0.0 0.0 -1.0
  outer loop
    vertex 6.48236190979493 5.431851652578141 0.0
    vertex 16.500000000000004 7.000000000000012 0.0
    vertex 6.999999999999988 5.499999999999993 1.127986593019159e-14
  endloop
endfacet
facet normal 0.0 0.0 -1.0
  outer loop
    vertex 6.999999999999988 5.499999999999993 1.127986593019159e-14
    vertex 16.500000000000004 7.000000000000012 0.0
    vertex 7.517638090205033 5.431851652578141 -1.6919798895287383e-14
  endloop
endfacet
facet normal 0.0 0.0 -1.0
  outer loop
    vertex 7.517638090205033 5.431851652578141 -1.6919798895287383e-14
    vertex 16.500000000000004 7.000000000000012 0.0
    vertex 7.999999999999985 5.232050807568886 1.127986593019159e-14
  endloop
endfacet
facet normal 0.0 0.0 -1.0
  outer loop
    vertex 7.999999999999985 5.232050807568886 1.127986593019159e-14
    vertex 16.500000000000004 7.000000000000012 0.0
    vertex 8.414213562373074 4.914213562373092 5.639932965095795e-15
  endloop
endfacet
facet normal 0.0 0.0 -1.0
  outer loop
    vertex 8.414213562373074 4.914213562373092 5.639932965095795e-15
    vertex 16.500000000000004 7.000000000000012 0.0
    vertex 8.732050807568887 4.499999999999992 -1.127986593019159e-14
  endloop
endfacet
facet normal 0.0 0.0 -1.0
  outer loop
    vertex 8.732050807568887 4.499999999999992 -1.127986593019159e-14
    vertex 16.500000000000004 7.000000000000012 0.0
    vertex 8.931851652578109 4.017638090205039 0.0
  endloop
endfacet
facet normal 0.0 0.0 -1.0
  outer loop
    vertex 8.931851652578109 4.017638090205039 0.0
    vertex 16.500000000000004 7.000000000000012 0.0
    vertex 8.999999999999984 3.499999999999994 1.6919798895287383e-14
  endloop
endfacet
facet normal 0.0 0.0 -1.0
  outer loop
    vertex 0.49999999999999994 0.0 3.3839597790574563e-15
    vertex 6.482361909794942 1.568148347421872 2.255973186038318e-14
    vertex 16.500000000000004 0.0 0.0
  endloop
endfacet
facet normal 0.0 0.0 -1.0
  outer loop
    vertex 6.482361909794942 1.568148347421872 2.255973186038318e-14
    vertex 0.49999999999999994 0.0 3.3839597790574563e-15
    vertex 5.999999999999966 1.7679491924311266 3.3839597790574766e-14
  endloop
endfacet
facet normal 0.0 0.0 -1.0
  outer loop
    vertex 5.999999999999966 1.7679491924311266 3.3839597790574766e-14
    vertex 0.49999999999999994 0.0 3.3839597790574563e-15
    vertex 5.585786437626888 2.0857864376269064 -2.255973186038318e-14
  endloop
endfacet
facet normal 0.0 0.0 -1.0
  outer loop
    vertex 5.585786437626888 2.0857864376269064 -2.255973186038318e-14
    vertex 0.49999999999999994 0.0 3.3839597790574563e-15
    vertex 5.2679491924310975 2.4999999999999956 -5.639932965095795e-15
  endloop
endfacet
facet normal 0.0 0.0 -1.0
  outer loop
    vertex 5.2679491924310975 2.4999999999999956 -5.639932965095795e-15
    vertex 0.49999999999999994 0.0 3.3839597790574563e-15
    vertex 5.068148347421865 2.9823619097949594 1.127986593019159e-14
  endloop
endfacet
facet normal 0.0 0.0 -1.0
  outer loop
    vertex 5.068148347421865 2.9823619097949594 1.127986593019159e-14
    vertex 0.49999999999999994 0.0 3.3839597790574563e-15
    vertex 4.999999999999968 3.499999999999994 1.6919798895287383e-14
  endloop
endfacet
facet normal 0.0 0.0 -1.0
  outer loop
    vertex 16.500000000000004 0.0 0.0
    vertex 6.482361909794942 1.568148347421872 2.255973186038318e-14
    vertex 6.999999999999988 1.4999999999999973 1.127986593019159e-14
  endloop
endfacet
facet normal 0.0 0.0 -1.0
  outer loop
    vertex 16.500000000000004 0.0 0.0
    vertex 6.999999999999988 1.4999999999999973 1.127986593019159e-14
    vertex 7.517638090205033 1.568148347421872 -1.6919798895287383e-14
  endloop
endfacet
facet normal 0.0 0.0 -1.0
  outer loop
    vertex 16.500000000000004 0.0 0.0
    vertex 7.517638090205033 1.568148347421872 -1.6919798895287383e-14
    vertex 7.999999999999985 1.7679491924311266 1.127986593019159e-14
  endloop
endfacet
facet normal 0.0 0.0 -1.0
  outer loop
    vertex 16.500000000000004 0.0 0.0
    vertex 7.999999999999985 1.7679491924311266 1.127986593019159e-14
    vertex 8.414213562373085 2.0857864376269064 5.639932965095795e-15
  endloop
endfacet
facet normal 0.0 0.0 -1.0
  outer loop
    vertex 16.500000000000004 0.0 0.0
    vertex 8.414213562373085 2.0857864376269064 5.639932965095795e-15
    vertex 8.732050807568887 2.4999999999999956 -1.127986593019159e-14
  endloop
endfacet
facet normal 0.0 0.0 -1.0
  outer loop
    vertex 16.500000000000004 0.0 0.0
    vertex 8.732050807568887 2.4999999999999956 -1.127986593019159e-14
    vertex 8.931851652578109 2.9823619097949594 0.0
  endloop
endfacet
facet normal 0.0 0.0 -1.0
  outer loop
    vertex 16.500000000000004 0.0 0.0
    vertex 8.931851652578109 2.9823619097949594 0.0
    vertex 8.999999999999984 3.499999999999994 1.6919798895287383e-14
  endloop
endfacet
facet normal 0.0 0.0 -1.0
  outer loop
    vertex 16.500000000000004 0.0 0.0
    vertex 8.999999999999984 3.499999999999994 1.6919798895287383e-14
    vertex 16.500000000000004 7.000000000000012 0.0
  endloop
endfacet
facet normal 1.0 -0.0 8.057047092994e-16
  outer loop
    vertex 16.500000000000004 7.000000000000012 0.0
    vertex 16.499999999999968 0.0 41.99999999999996
    vertex 16.500000000000004 0.0 0.0
  endloop
endfacet
facet normal 1.0 -0.0 8.057047092994e-16
  outer loop
    vertex 16.499999999999968 0.0 41.99999999999996
    vertex 16.500000000000004 7.000000000000012 0.0
    vertex 16.499999999999968 7.000000000000012 41.99999999999996
  endloop
endfacet
facet normal 5.37136472866266e-16 0.0 -1.0
  outer loop
    vertex 58.499999999999986 7.000000000000012 41.99999999999998
    vertex 16.499999999999968 0.0 41.99999999999996
    vertex 16.499999999999968 7.000000000000012 41.99999999999996
  endloop
endfacet
facet normal 5.37136472866266e-16 0.0 -1.0
  outer loop
    vertex 16.499999999999968 0.0 41.99999999999996
    vertex 58.499999999999986 7.000000000000012 41.99999999999998
    vertex 58.499999999999986 0.0 41.99999999999998
  endloop
endfacet
facet normal 1.9199771796070804e-15 0.0 1.0
  outer loop
    vertex 61.49999999999996 0.0 44.99999999999994
    vertex 13.499999999999986 7.000000000000012 45.00000000000003
    vertex 13.499999999999986 0.0 45.00000000000003
  endloop
endfacet
facet normal 1.9199771796070804e-15 0.0 1.0
  outer loop
    vertex 13.499999999999986 7.000000000000012 45.00000000000003
    vertex 61.49999999999996 0.0 44.99999999999994
    vertex 61.49999999999996 7.000000000000012 44.99999999999994
  endloop
endfacet
facet normal -0.0 1.0 -0.0
  outer loop
    vertex 0.49999999999996614 7.000000000000012 5.000000000000034
    vertex 13.499999999999964 7.000000000000012 5.000000000000002
    vertex 0.49999999999999994 7.000000000000012 3.3839597790574563e-15
  endloop
endfacet
facet normal -0.0 1.0 -0.0
  outer loop
    vertex 16.500000000000004 7.000000000000012 0.0
    vertex 13.499999999999964 7.000000000000012 5.000000000000002
    vertex 16.499999999999968 7.000000000000012 41.99999999999996
  endloop
endfacet
facet normal -0.0 1.0 -0.0
  outer loop
    vertex 13.499999999999964 7.000000000000012 5.000000000000002
    vertex 16.500000000000004 7.000000000000012 0.0
    vertex 0.49999999999999994 7.000000000000012 3.3839597790574563e-15
  endloop
endfacet
facet normal -0.0 1.0 -0.0
  outer loop
    vertex 16.499999999999968 7.000000000000012 41.99999999999996
    vertex 13.499999999999964 7.000000000000012 5.000000000000002
    vertex 13.499999999999986 7.000000000000012 45.00000000000003
  endloop
endfacet
facet normal -0.0 1.0 -0.0
  outer loop
    vertex 16.499999999999968 7.000000000000012 41.99999999999996
    vertex 13.499999999999986 7.000000000000012 45.00000000000003
    vertex 58.499999999999986 7.000000000000012 41.99999999999998
  endloop
endfacet
facet normal -0.0 1.0 -0.0
  outer loop
    vertex 58.499999999999986 7.000000000000012 41.99999999999998
    vertex 13.499999999999986 7.000000000000012 45.00000000000003
    vertex 61.49999999999996 7.000000000000012 44.99999999999994
  endloop
endfacet
facet normal -0.0 1.0 -0.0
  outer loop
    vertex 58.499999999999936 7.000000000000012 -1.6919798895287383e-14
    vertex 61.49999999999996 7.000000000000012 4.999999999999991
    vertex 74.50000000000009 7.000000000000012 0.0
  endloop
endfacet
facet normal -0.0 1.0 -0.0
  outer loop
    vertex 61.49999999999996 7.000000000000012 4.999999999999991
    vertex 58.499999999999936 7.000000000000012 -1.6919798895287383e-14
    vertex 58.499999999999986 7.000000000000012 41.99999999999998
  endloop
endfacet
facet normal -0.0 1.0 -0.0
  outer loop
    vertex 61.49999999999996 7.000000000000012 4.999999999999991
    vertex 58.499999999999986 7.000000000000012 41.99999999999998
    vertex 61.49999999999996 7.000000000000012 44.99999999999994
  endloop
endfacet
facet normal -0.0 1.0 -0.0
  outer loop
    vertex 74.50000000000009 7.000000000000012 5.000000000000008
    vertex 74.50000000000009 7.000000000000012 0.0
    vertex 61.49999999999996 7.000000000000012 4.999999999999991
  endloop
endfacet
facet normal 0.0 -1.0 0.0
  outer loop
    vertex 74.50000000000009 0.0 5.000000000000008
    vertex 61.49999999999996 0.0 4.999999999999991
    vertex 74.50000000000009 0.0 0.0
  endloop
endfacet
facet normal 0.0 -1.0 0.0
  outer loop
    vertex 58.499999999999936 0.0 -1.6919798895287383e-14
    vertex 61.49999999999996 0.0 4.999999999999991
    vertex 58.499999999999986 0.0 41.99999999999998
  endloop
endfacet
facet normal 0.0 -1.0 0.0
  outer loop
    vertex 61.49999999999996 0.0 4.999999999999991
    vertex 58.499999999999936 0.0 -1.6919798895287383e-14
    vertex 74.50000000000009 0.0 0.0
  endloop
endfacet
facet normal 0.0 -1.0 0.0
  outer loop
    vertex 58.499999999999986 0.0 41.99999999999998
    vertex 61.49999999999996 0.0 4.999999999999991
    vertex 61.49999999999996 0.0 44.99999999999994
  endloop
endfacet
facet normal 0.0 -1.0 0.0
  outer loop
    vertex 16.500000000000004 0.0 0.0
    vertex 13.499999999999964 0.0 5.000000000000002
    vertex 0.49999999999999994 0.0 3.3839597790574563e-15
  endloop
endfacet
facet normal 0.0 -1.0 0.0
  outer loop
    vertex 13.499999999999964 0.0 5.000000000000002
    vertex 16.500000000000004 0.0 0.0
    vertex 16.499999999999968 0.0 41.99999999999996
  endloop
endfacet
facet normal 0.0 -1.0 0.0
  outer loop
    vertex 13.499999999999964 0.0 5.000000000000002
    vertex 16.499999999999968 0.0 41.99999999999996
    vertex 13.499999999999986 0.0 45.00000000000003
  endloop
endfacet
facet normal 0.0 -1.0 0.0
  outer loop
    vertex 13.499999999999986 0.0 45.00000000000003
    vertex 16.499999999999968 0.0 41.99999999999996
    vertex 58.499999999999986 0.0 41.99999999999998
  endloop
endfacet
facet normal 0.0 -1.0 0.0
  outer loop
    vertex 13.499999999999986 0.0 45.00000000000003
    vertex 58.499999999999986 0.0 41.99999999999998
    vertex 61.49999999999996 0.0 44.99999999999994
  endloop
endfacet
facet normal 0.0 -1.0 0.0
  outer loop
    vertex 0.49999999999996614 0.0 5.000000000000034
    vertex 0.49999999999999994 0.0 3.3839597790574563e-15
    vertex 13.499999999999964 0.0 5.000000000000002
  endloop
endfacet
facet normal -1.0 0.0 1.0742729457325324e-15
  outer loop
    vertex 58.499999999999986 7.000000000000012 41.99999999999998
    vertex 58.499999999999936 0.0 -1.6919798895287383e-14
    vertex 58.499999999999986 0.0 41.99999999999998
  endloop
endfacet
facet normal -1.0 0.0 1.0742729457325324e-15
  outer loop
    vertex 58.499999999999936 0.0 -1.6919798895287383e-14
    vertex 58.499999999999986 7.000000000000012 41.99999999999998
    vertex 58.499999999999936 7.000000000000012 -1.6919798895287383e-14
  endloop
endfacet
facet normal 1.0 0.0 0.0
  outer loop
    vertex 74.50000000000009 7.000000000000012 0.0
    vertex 74.50000000000009 0.0 5.000000000000008
    vertex 74.50000000000009 0.0 0.0
  endloop
endfacet
facet normal 1.0 0.0 0.0
  outer loop
    vertex 74.50000000000009 0.0 5.000000000000008
    vertex 74.50000000000009 7.000000000000012 0.0
    vertex 74.50000000000009 7.000000000000012 5.000000000000008
  endloop
endfacet
facet normal -1.2085570639490874e-15 -0.0 1.0
  outer loop
    vertex 61.49999999999996 0.0 4.999999999999991
    vertex 66.58578643762685 2.0857864376269064 4.99999999999998
    vertex 61.49999999999996 7.000000000000012 4.999999999999991
  endloop
endfacet
facet normal -1.2085570639490874e-15 -0.0 1.0
  outer loop
    vertex 66.58578643762685 2.0857864376269064 4.99999999999998
    vertex 61.49999999999996 0.0 4.999999999999991
    vertex 67.00000000000003 1.7679491924311266 4.999999999999991
  endloop
endfacet
facet normal -1.2085570639490874e-15 -0.0 1.0
  outer loop
    vertex 67.00000000000003 1.7679491924311266 4.999999999999991
    vertex 61.49999999999996 0.0 4.999999999999991
    vertex 67.48236190979496 1.5681483474218607 5.000000000000002
  endloop
endfacet
facet normal -1.2085570639490874e-15 -0.0 1.0
  outer loop
    vertex 67.48236190979496 1.5681483474218607 5.000000000000002
    vertex 61.49999999999996 0.0 4.999999999999991
    vertex 74.50000000000009 0.0 5.000000000000008
  endloop
endfacet
facet normal -1.2085570639490874e-15 -0.0 1.0
  outer loop
    vertex 61.49999999999996 7.000000000000012 4.999999999999991
    vertex 66.58578643762685 2.0857864376269064 4.99999999999998
    vertex 66.26794919243116 2.4999999999999956 5.000000000000002
  endloop
endfacet
facet normal -1.2085570639490874e-15 -0.0 1.0
  outer loop
    vertex 61.49999999999996 7.000000000000012 4.999999999999991
    vertex 66.26794919243116 2.4999999999999956 5.000000000000002
    vertex 66.06814834742195 2.9823619097949594 5.000000000000025
  endloop
endfacet
facet normal -1.2085570639490874e-15 -0.0 1.0
  outer loop
    vertex 61.49999999999996 7.000000000000012 4.999999999999991
    vertex 66.06814834742195 2.9823619097949594 5.000000000000025
    vertex 66.00000000000004 3.499999999999994 5.000000000000025
  endloop
endfacet
facet normal -1.2085570639490874e-15 -0.0 1.0
  outer loop
    vertex 67.48236190979496 1.5681483474218607 5.000000000000002
    vertex 74.50000000000009 0.0 5.000000000000008
    vertex 68.00000000000003 1.4999999999999973 5.000000000000019
  endloop
endfacet
facet normal -1.2085570639490874e-15 -0.0 1.0
  outer loop
    vertex 68.00000000000003 1.4999999999999973 5.000000000000019
    vertex 74.50000000000009 0.0 5.000000000000008
    vertex 68.51763809020501 1.5681483474218607 5.000000000000013
  endloop
endfacet
facet normal -1.2085570639490874e-15 -0.0 1.0
  outer loop
    vertex 68.51763809020501 1.5681483474218607 5.000000000000013
    vertex 74.50000000000009 0.0 5.000000000000008
    vertex 68.99999999999999 1.7679491924311266 5.000000000000008
  endloop
endfacet
facet normal -1.2085570639490874e-15 -0.0 1.0
  outer loop
    vertex 68.99999999999999 1.7679491924311266 5.000000000000008
    vertex 74.50000000000009 0.0 5.000000000000008
    vertex 69.41421356237304 2.0857864376269064 5.000000000000002
  endloop
endfacet
facet normal -1.2085570639490874e-15 -0.0 1.0
  outer loop
    vertex 69.41421356237304 2.0857864376269064 5.000000000000002
    vertex 74.50000000000009 0.0 5.000000000000008
    vertex 69.73205080756897 2.4999999999999956 5.000000000000008
  endloop
endfacet
facet normal -1.2085570639490874e-15 -0.0 1.0
  outer loop
    vertex 69.73205080756897 2.4999999999999956 5.000000000000008
    vertex 74.50000000000009 0.0 5.000000000000008
    vertex 69.93185165257817 2.9823619097949594 5.000000000000013
  endloop
endfacet
facet normal -1.2085570639490874e-15 -0.0 1.0
  outer loop
    vertex 69.93185165257817 2.9823619097949594 5.000000000000013
    vertex 74.50000000000009 0.0 5.000000000000008
    vertex 70.00000000000006 3.499999999999994 5.000000000000002
  endloop
endfacet
facet normal -1.2085570639490874e-15 -0.0 1.0
  outer loop
    vertex 61.49999999999996 7.000000000000012 4.999999999999991
    vertex 67.48236190979496 5.431851652578141 5.000000000000002
    vertex 74.50000000000009 7.000000000000012 5.000000000000008
  endloop
endfacet
facet normal -1.2085570639490874e-15 -0.0 1.0
  outer loop
    vertex 67.48236190979496 5.431851652578141 5.000000000000002
    vertex 61.49999999999996 7.000000000000012 4.999999999999991
    vertex 67.00000000000003 5.232050807568886 5.000000000000013
  endloop
endfacet
facet normal -1.2085570639490874e-15 -0.0 1.0
  outer loop
    vertex 67.00000000000003 5.232050807568886 5.000000000000013
    vertex 61.49999999999996 7.000000000000012 4.999999999999991
    vertex 66.58578643762685 4.914213562373092 4.99999999999998
  endloop
endfacet
facet normal -1.2085570639490874e-15 -0.0 1.0
  outer loop
    vertex 66.58578643762685 4.914213562373092 4.99999999999998
    vertex 61.49999999999996 7.000000000000012 4.999999999999991
    vertex 66.26794919243116 4.499999999999992 5.000000000000025
  endloop
endfacet
facet normal -1.2085570639490874e-15 -0.0 1.0
  outer loop
    vertex 66.26794919243116 4.499999999999992 5.000000000000025
    vertex 61.49999999999996 7.000000000000012 4.999999999999991
    vertex 66.06814834742195 4.017638090205039 5.000000000000025
  endloop
endfacet
facet normal -1.2085570639490874e-15 -0.0 1.0
  outer loop
    vertex 66.06814834742195 4.017638090205039 5.000000000000025
    vertex 61.49999999999996 7.000000000000012 4.999999999999991
    vertex 66.00000000000004 3.499999999999994 5.000000000000025
  endloop
endfacet
facet normal -1.2085570639490874e-15 -0.0 1.0
  outer loop
    vertex 74.50000000000009 7.000000000000012 5.000000000000008
    vertex 67.48236190979496 5.431851652578141 5.000000000000002
    vertex 68.00000000000003 5.500000000000015 5.000000000000019
  endloop
endfacet
facet normal -1.2085570639490874e-15 -0.0 1.0
  outer loop
    vertex 74.50000000000009 7.000000000000012 5.000000000000008
    vertex 68.00000000000003 5.500000000000015 5.000000000000019
    vertex 68.51763809020501 5.431851652578141 5.000000000000013
  endloop
endfacet
facet normal -1.2085570639490874e-15 -0.0 1.0
  outer loop
    vertex 74.50000000000009 7.000000000000012 5.000000000000008
    vertex 68.51763809020501 5.431851652578141 5.000000000000013
    vertex 68.99999999999999 5.232050807568886 5.000000000000008
  endloop
endfacet
facet normal -1.2085570639490874e-15 -0.0 1.0
  outer loop
    vertex 74.50000000000009 7.000000000000012 5.000000000000008
    vertex 68.99999999999999 5.232050807568886 5.000000000000008
    vertex 69.41421356237304 4.914213562373092 5.000000000000002
  endloop
endfacet
facet normal -1.2085570639490874e-15 -0.0 1.0
  outer loop
    vertex 74.50000000000009 7.000000000000012 5.000000000000008
    vertex 69.41421356237304 4.914213562373092 5.000000000000002
    vertex 69.73205080756897 4.500000000000003 5.000000000000008
  endloop
endfacet
facet normal -1.2085570639490874e-15 -0.0 1.0
  outer loop
    vertex 74.50000000000009 7.000000000000012 5.000000000000008
    vertex 69.73205080756897 4.500000000000003 5.000000000000008
    vertex 69.93185165257817 4.017638090205039 5.000000000000013
  endloop
endfacet
facet normal -1.2085570639490874e-15 -0.0 1.0
  outer loop
    vertex 74.50000000000009 7.000000000000012 5.000000000000008
    vertex 69.93185165257817 4.017638090205039 5.000000000000013
    vertex 70.00000000000006 3.499999999999994 5.000000000000002
  endloop
endfacet
facet normal -1.2085570639490874e-15 -0.0 1.0
  outer loop
    vertex 74.50000000000009 7.000000000000012 5.000000000000008
    vertex 70.00000000000006 3.499999999999994 5.000000000000002
    vertex 74.50000000000009 0.0 5.000000000000008
  endloop
endfacet
facet normal 1.0254423572901351e-15 0.0 -1.0
  outer loop
    vertex 58.499999999999936 7.000000000000012 -1.6919798895287383e-14
    vertex 66.99999999999999 5.232050807568886 2.8199664825478976e-14
    vertex 58.499999999999936 0.0 -1.6919798895287383e-14
  endloop
endfacet
facet normal 1.0254423572901351e-15 0.0 -1.0
  outer loop
    vertex 66.99999999999999 5.232050807568886 2.8199664825478976e-14
    vertex 58.499999999999936 7.000000000000012 -1.6919798895287383e-14
    vertex 67.48236190979496 5.431851652578141 1.6919798895287383e-14
  endloop
endfacet
facet normal 1.0254423572901351e-15 0.0 -1.0
  outer loop
    vertex 67.48236190979496 5.431851652578141 1.6919798895287383e-14
    vertex 58.499999999999936 7.000000000000012 -1.6919798895287383e-14
    vertex 74.50000000000009 7.000000000000012 0.0
  endloop
endfacet
facet normal 1.0254423572901351e-15 0.0 -1.0
  outer loop
    vertex 58.499999999999936 0.0 -1.6919798895287383e-14
    vertex 66.99999999999999 5.232050807568886 2.8199664825478976e-14
    vertex 66.58578643762694 4.914213562373092 2.8199664825478976e-14
  endloop
endfacet
facet normal 1.0254423572901351e-15 0.0 -1.0
  outer loop
    vertex 58.499999999999936 0.0 -1.6919798895287383e-14
    vertex 66.58578643762694 4.914213562373092 2.8199664825478976e-14
    vertex 66.26794919243108 4.499999999999992 1.127986593019159e-14
  endloop
endfacet
facet normal 1.0254423572901351e-15 0.0 -1.0
  outer loop
    vertex 58.499999999999936 0.0 -1.6919798895287383e-14
    vertex 66.26794919243108 4.499999999999992 1.127986593019159e-14
    vertex 66.06814834742183 4.017638090205039 2.255973186038318e-14
  endloop
endfacet
facet normal 1.0254423572901351e-15 0.0 -1.0
  outer loop
    vertex 58.499999999999936 0.0 -1.6919798895287383e-14
    vertex 66.06814834742183 4.017638090205039 2.255973186038318e-14
    vertex 65.99999999999994 3.499999999999994 2.8199664825478976e-14
  endloop
endfacet
facet normal 1.0254423572901351e-15 0.0 -1.0
  outer loop
    vertex 67.48236190979496 5.431851652578141 1.6919798895287383e-14
    vertex 74.50000000000009 7.000000000000012 0.0
    vertex 67.99999999999994 5.500000000000015 -1.127986593019159e-14
  endloop
endfacet
facet normal 1.0254423572901351e-15 0.0 -1.0
  outer loop
    vertex 67.99999999999994 5.500000000000015 -1.127986593019159e-14
    vertex 74.50000000000009 7.000000000000012 0.0
    vertex 68.51763809020493 5.431851652578141 1.127986593019159e-14
  endloop
endfacet
facet normal 1.0254423572901351e-15 0.0 -1.0
  outer loop
    vertex 68.51763809020493 5.431851652578141 1.127986593019159e-14
    vertex 74.50000000000009 7.000000000000012 0.0
    vertex 69.00000000000003 5.232050807568886 3.3839597790574766e-14
  endloop
endfacet
facet normal 1.0254423572901351e-15 0.0 -1.0
  outer loop
    vertex 69.00000000000003 5.232050807568886 3.3839597790574766e-14
    vertex 74.50000000000009 7.000000000000012 0.0
    vertex 69.41421356237309 4.914213562373092 0.0
  endloop
endfacet
facet normal 1.0254423572901351e-15 0.0 -1.0
  outer loop
    vertex 69.41421356237309 4.914213562373092 0.0
    vertex 74.50000000000009 7.000000000000012 0.0
    vertex 69.73205080756888 4.500000000000003 2.255973186038318e-14
  endloop
endfacet
facet normal 1.0254423572901351e-15 0.0 -1.0
  outer loop
    vertex 69.73205080756888 4.500000000000003 2.255973186038318e-14
    vertex 74.50000000000009 7.000000000000012 0.0
    vertex 69.93185165257809 4.017638090205039 1.127986593019159e-14
  endloop
endfacet
facet normal 1.0254423572901351e-15 0.0 -1.0
  outer loop
    vertex 69.93185165257809 4.017638090205039 1.127986593019159e-14
    vertex 74.50000000000009 7.000000000000012 0.0
    vertex 70.0 3.499999999999994 -5.639932965095795e-15
  endloop
endfacet
facet normal 1.0254423572901351e-15 0.0 -1.0
  outer loop
    vertex 58.499999999999936 0.0 -1.6919798895287383e-14
    vertex 67.48236190979496 1.5681483474218607 1.6919798895287383e-14
    vertex 74.50000000000009 0.0 0.0
  endloop
endfacet
facet normal 1.0254423572901351e-15 0.0 -1.0
  outer loop
    vertex 67.48236190979496 1.5681483474218607 1.6919798895287383e-14
    vertex 58.499999999999936 0.0 -1.6919798895287383e-14
    vertex 66.99999999999999 1.7679491924311266 2.8199664825478976e-14
  endloop
endfacet
facet normal 1.0254423572901351e-15 0.0 -1.0
  outer loop
    vertex 66.99999999999999 1.7679491924311266 2.8199664825478976e-14
    vertex 58.499999999999936 0.0 -1.6919798895287383e-14
    vertex 66.58578643762694 2.0857864376269064 2.8199664825478976e-14
  endloop
endfacet
facet normal 1.0254423572901351e-15 0.0 -1.0
  outer loop
    vertex 66.58578643762694 2.0857864376269064 2.8199664825478976e-14
    vertex 58.499999999999936 0.0 -1.6919798895287383e-14
    vertex 66.26794919243108 2.4999999999999956 1.127986593019159e-14
  endloop
endfacet
facet normal 1.0254423572901351e-15 0.0 -1.0
  outer loop
    vertex 66.26794919243108 2.4999999999999956 1.127986593019159e-14
    vertex 58.499999999999936 0.0 -1.6919798895287383e-14
    vertex 66.06814834742183 2.9823619097949594 2.255973186038318e-14
  endloop
endfacet
facet normal 1.0254423572901351e-15 0.0 -1.0
  outer loop
    vertex 66.06814834742183 2.9823619097949594 2.255973186038318e-14
    vertex 58.499999999999936 0.0 -1.6919798895287383e-14
    vertex 65.99999999999994 3.499999999999994 2.8199664825478976e-14
  endloop
endfacet
facet normal 1.0254423572901351e-15 0.0 -1.0
  outer loop
    vertex 74.50000000000009 0.0 0.0
    vertex 67.48236190979496 1.5681483474218607 1.6919798895287383e-14
    vertex 67.99999999999994 1.4999999999999973 -1.127986593019159e-14
  endloop
endfacet
facet normal 1.0254423572901351e-15 0.0 -1.0
  outer loop
    vertex 74.50000000000009 0.0 0.0
    vertex 67.99999999999994 1.4999999999999973 -1.127986593019159e-14
    vertex 68.51763809020493 1.5681483474218607 0.0
  endloop
endfacet
facet normal 1.0254423572901351e-15 0.0 -1.0
  outer loop
    vertex 74.50000000000009 0.0 0.0
    vertex 68.51763809020493 1.5681483474218607 0.0
    vertex 69.00000000000003 1.7679491924311266 3.3839597790574766e-14
  endloop
endfacet
facet normal 1.0254423572901351e-15 0.0 -1.0
  outer loop
    vertex 74.50000000000009 0.0 0.0
    vertex 69.00000000000003 1.7679491924311266 3.3839597790574766e-14
    vertex 69.41421356237313 2.0857864376269064 3.3839597790574766e-14
  endloop
endfacet
facet normal 1.0254423572901351e-15 0.0 -1.0
  outer loop
    vertex 74.50000000000009 0.0 0.0
    vertex 69.41421356237313 2.0857864376269064 3.3839597790574766e-14
    vertex 69.73205080756888 2.4999999999999956 2.255973186038318e-14
  endloop
endfacet
facet normal 1.0254423572901351e-15 0.0 -1.0
  outer loop
    vertex 74.50000000000009 0.0 0.0
    vertex 69.73205080756888 2.4999999999999956 2.255973186038318e-14
    vertex 69.93185165257809 2.9823619097949594 1.127986593019159e-14
  endloop
endfacet
facet normal 1.0254423572901351e-15 0.0 -1.0
  outer loop
    vertex 74.50000000000009 0.0 0.0
    vertex 69.93185165257809 2.9823619097949594 1.127986593019159e-14
    vertex 70.0 3.499999999999994 -5.639932965095795e-15
  endloop
endfacet
facet normal 1.0254423572901351e-15 0.0 -1.0
  outer loop
    vertex 74.50000000000009 0.0 0.0
    vertex 70.0 3.499999999999994 -5.639932965095795e-15
    vertex 74.50000000000009 7.000000000000012 0.0
  endloop
endfacet
facet normal -1.0 0.0 5.711324521615991e-16
  outer loop
    vertex 13.499999999999986 7.000000000000012 45.00000000000003
    vertex 13.499999999999964 0.0 5.000000000000002
    vertex 13.499999999999986 0.0 45.00000000000003
  endloop
endfacet
facet normal -1.0 0.0 5.711324521615991e-16
  outer loop
    vertex 13.499999999999964 0.0 5.000000000000002
    vertex 13.499999999999986 7.000000000000012 45.00000000000003
    vertex 13.499999999999964 7.000000000000012 5.000000000000002
  endloop
endfacet
facet normal 2.0142617732484986e-15 -0.0 1.0
  outer loop
    vertex 0.49999999999996614 0.0 5.000000000000034
    vertex 5.585786437626888 2.0857864376269064 5.000000000000008
    vertex 0.49999999999996614 7.000000000000012 5.000000000000034
  endloop
endfacet
facet normal 2.0142617732484986e-15 -0.0 1.0
  outer loop
    vertex 5.585786437626888 2.0857864376269064 5.000000000000008
    vertex 0.49999999999996614 0.0 5.000000000000034
    vertex 6.0 1.7679491924311266 5.000000000000008
  endloop
endfacet
facet normal 2.0142617732484986e-15 -0.0 1.0
  outer loop
    vertex 6.0 1.7679491924311266 5.000000000000008
    vertex 0.49999999999996614 0.0 5.000000000000034
    vertex 6.482361909794964 1.568148347421872 5.0000000000000355
  endloop
endfacet
facet normal 2.0142617732484986e-15 -0.0 1.0
  outer loop
    vertex 6.482361909794964 1.568148347421872 5.0000000000000355
    vertex 0.49999999999996614 0.0 5.000000000000034
    vertex 13.499999999999964 0.0 5.000000000000002
  endloop
endfacet
facet normal 2.0142617732484986e-15 -0.0 1.0
  outer loop
    vertex 0.49999999999996614 7.000000000000012 5.000000000000034
    vertex 5.585786437626888 2.0857864376269064 5.000000000000008
    vertex 5.267949192431086 2.4999999999999956 4.999999999999985
  endloop
endfacet
facet normal 2.0142617732484986e-15 -0.0 1.0
  outer loop
    vertex 0.49999999999996614 7.000000000000012 5.000000000000034
    vertex 5.267949192431086 2.4999999999999956 4.999999999999985
    vertex 5.068148347421865 2.9823619097949594 4.99999999999998
  endloop
endfacet
facet normal 2.0142617732484986e-15 -0.0 1.0
  outer loop
    vertex 0.49999999999996614 7.000000000000012 5.000000000000034
    vertex 5.068148347421865 2.9823619097949594 4.99999999999998
    vertex 4.99999999999998 3.499999999999994 5.000000000000008
  endloop
endfacet
facet normal 2.0142617732484986e-15 -0.0 1.0
  outer loop
    vertex 6.482361909794964 1.568148347421872 5.0000000000000355
    vertex 13.499999999999964 0.0 5.000000000000002
    vertex 6.999999999999998 1.4999999999999973 4.99999999999998
  endloop
endfacet
facet normal 2.0142617732484986e-15 -0.0 1.0
  outer loop
    vertex 6.999999999999998 1.4999999999999973 4.99999999999998
    vertex 13.499999999999964 0.0 5.000000000000002
    vertex 7.517638090205021 1.568148347421872 5.000000000000019
  endloop
endfacet
facet normal 2.0142617732484986e-15 -0.0 1.0
  outer loop
    vertex 7.517638090205021 1.568148347421872 5.000000000000019
    vertex 13.499999999999964 0.0 5.000000000000002
    vertex 8.000000000000007 1.7679491924311266 5.00000000000003
  endloop
endfacet
facet normal 2.0142617732484986e-15 -0.0 1.0
  outer loop
    vertex 8.000000000000007 1.7679491924311266 5.00000000000003
    vertex 13.499999999999964 0.0 5.000000000000002
    vertex 8.414213562373108 2.0857864376269064 5.000000000000025
  endloop
endfacet
facet normal 2.0142617732484986e-15 -0.0 1.0
  outer loop
    vertex 8.414213562373108 2.0857864376269064 5.000000000000025
    vertex 13.499999999999964 0.0 5.000000000000002
    vertex 8.732050807568877 2.4999999999999956 5.000000000000008
  endloop
endfacet
facet normal 2.0142617732484986e-15 -0.0 1.0
  outer loop
    vertex 8.732050807568877 2.4999999999999956 5.000000000000008
    vertex 13.499999999999964 0.0 5.000000000000002
    vertex 8.931851652578109 2.9823619097949594 5.000000000000002
  endloop
endfacet
facet normal 2.0142617732484986e-15 -0.0 1.0
  outer loop
    vertex 8.931851652578109 2.9823619097949594 5.000000000000002
    vertex 13.499999999999964 0.0 5.000000000000002
    vertex 8.999999999999984 3.499999999999994 5.000000000000047
  endloop
endfacet
facet normal 2.0142617732484986e-15 -0.0 1.0
  outer loop
    vertex 0.49999999999996614 7.000000000000012 5.000000000000034
    vertex 6.482361909794964 5.431851652578141 5.0000000000000355
    vertex 13.499999999999964 7.000000000000012 5.000000000000002
  endloop
endfacet
facet normal 2.0142617732484986e-15 -0.0 1.0
  outer loop
    vertex 6.482361909794964 5.431851652578141 5.0000000000000355
    vertex 0.49999999999996614 7.000000000000012 5.000000000000034
    vertex 6.0 5.232050807568886 5.000000000000008
  endloop
endfacet
facet normal 2.0142617732484986e-15 -0.0 1.0
  outer loop
    vertex 6.0 5.232050807568886 5.000000000000008
    vertex 0.49999999999996614 7.000000000000012 5.000000000000034
    vertex 5.585786437626888 4.914213562373092 5.000000000000008
  endloop
endfacet
facet normal 2.0142617732484986e-15 -0.0 1.0
  outer loop
    vertex 5.585786437626888 4.914213562373092 5.000000000000008
    vertex 0.49999999999996614 7.000000000000012 5.000000000000034
    vertex 5.267949192431086 4.499999999999992 4.999999999999985
  endloop
endfacet
facet normal 2.0142617732484986e-15 -0.0 1.0
  outer loop
    vertex 5.267949192431086 4.499999999999992 4.999999999999985
    vertex 0.49999999999996614 7.000000000000012 5.000000000000034
    vertex 5.068148347421865 4.017638090205039 4.99999999999998
  endloop
endfacet
facet normal 2.0142617732484986e-15 -0.0 1.0
  outer loop
    vertex 5.068148347421865 4.017638090205039 4.99999999999998
    vertex 0.49999999999996614 7.000000000000012 5.000000000000034
    vertex 4.99999999999998 3.499999999999994 5.000000000000008
  endloop
endfacet
facet normal 2.0142617732484986e-15 -0.0 1.0
  outer loop
    vertex 13.499999999999964 7.000000000000012 5.000000000000002
    vertex 6.482361909794964 5.431851652578141 5.0000000000000355
    vertex 6.999999999999998 5.499999999999993 4.99999999999998
  endloop
endfacet
facet normal 2.0142617732484986e-15 -0.0 1.0
  outer loop
    vertex 13.499999999999964 7.000000000000012 5.000000000000002
    vertex 6.999999999999998 5.499999999999993 4.99999999999998
    vertex 7.517638090205021 5.431851652578141 5.000000000000019
  endloop
endfacet
facet normal 2.0142617732484986e-15 -0.0 1.0
  outer loop
    vertex 13.499999999999964 7.000000000000012 5.000000000000002
    vertex 7.517638090205021 5.431851652578141 5.000000000000019
    vertex 8.000000000000007 5.232050807568886 5.00000000000003
  endloop
endfacet
facet normal 2.0142617732484986e-15 -0.0 1.0
  outer loop
    vertex 13.499999999999964 7.000000000000012 5.000000000000002
    vertex 8.000000000000007 5.232050807568886 5.00000000000003
    vertex 8.414213562373074 4.914213562373092 5.000000000000019
  endloop
endfacet
facet normal 2.0142617732484986e-15 -0.0 1.0
  outer loop
    vertex 13.499999999999964 7.000000000000012 5.000000000000002
    vertex 8.414213562373074 4.914213562373092 5.000000000000019
    vertex 8.732050807568877 4.499999999999992 5.000000000000008
  endloop
endfacet
facet normal 2.0142617732484986e-15 -0.0 1.0
  outer loop
    vertex 13.499999999999964 7.000000000000012 5.000000000000002
    vertex 8.732050807568877 4.499999999999992 5.000000000000008
    vertex 8.931851652578109 4.017638090205039 5.000000000000002
  endloop
endfacet
facet normal 2.0142617732484986e-15 -0.0 1.0
  outer loop
    vertex 13.499999999999964 7.000000000000012 5.000000000000002
    vertex 8.931851652578109 4.017638090205039 5.000000000000002
    vertex 8.999999999999984 3.499999999999994 5.000000000000047
  endloop
endfacet
facet normal 2.0142617732484986e-15 -0.0 1.0
  outer loop
    vertex 13.499999999999964 7.000000000000012 5.000000000000002
    vertex 8.999999999999984 3.499999999999994 5.000000000000047
    vertex 13.499999999999964 0.0 5.000000000000002
  endloop
endfacet
facet normal 1.0 0.0 0.0
  outer loop
    vertex 61.49999999999996 7.000000000000012 4.999999999999991
    vertex 61.49999999999996 0.0 44.99999999999994
    vertex 61.49999999999996 0.0 4.999999999999991
  endloop
endfacet
facet normal 1.0 0.0 0.0
  outer loop
    vertex 61.49999999999996 0.0 44.99999999999994
    vertex 61.49999999999996 7.000000000000012 4.999999999999991
    vertex 61.49999999999996 7.000000000000012 44.99999999999994
  endloop
endfacet
facet normal -0.1305261922200323 -0.9914448613738129 7.750688447896965e-19
  outer loop
    vertex 7.517638090205021 5.431851652578141 5.000000000000019
    vertex 6.999999999999988 5.499999999999993 1.127986593019159e-14
    vertex 7.517638090205033 5.431851652578141 -1.6919798895287383e-14
  endloop
endfacet
facet normal -0.1305261922200323 -0.9914448613738129 7.750688447896965e-19
  outer loop
    vertex 6.999999999999988 5.499999999999993 1.127986593019159e-14
    vertex 7.517638090205021 5.431851652578141 5.000000000000019
    vertex 6.999999999999998 5.499999999999993 4.99999999999998
  endloop
endfacet
facet normal 0.1305261922200295 -0.9914448613738134 -5.891127633741881e-16
  outer loop
    vertex 6.999999999999988 5.499999999999993 1.127986593019159e-14
    vertex 6.482361909794964 5.431851652578141 5.0000000000000355
    vertex 6.48236190979493 5.431851652578141 0.0
  endloop
endfacet
facet normal 0.1305261922200295 -0.9914448613738134 -5.891127633741881e-16
  outer loop
    vertex 6.482361909794964 5.431851652578141 5.0000000000000355
    vertex 6.999999999999988 5.499999999999993 1.127986593019159e-14
    vertex 6.999999999999998 5.499999999999993 4.99999999999998
  endloop
endfacet
facet normal 0.38268343236507835 -0.9238795325112916 -2.590416183174648e-15
  outer loop
    vertex 6.482361909794964 5.431851652578141 5.0000000000000355
    vertex 5.999999999999966 5.232050807568886 3.3839597790574766e-14
    vertex 6.48236190979493 5.431851652578141 0.0
  endloop
endfacet
facet normal 0.38268343236507835 -0.9238795325112916 -2.590416183174648e-15
  outer loop
    vertex 5.999999999999966 5.232050807568886 3.3839597790574766e-14
    vertex 6.482361909794964 5.431851652578141 5.0000000000000355
    vertex 6.0 5.232050807568886 5.000000000000008
  endloop
endfacet
facet normal 0.6087614290087349 -0.7933533402912242 -2.061281775747643e-15
  outer loop
    vertex 5.999999999999966 5.232050807568886 3.3839597790574766e-14
    vertex 5.585786437626888 4.914213562373092 5.000000000000008
    vertex 5.585786437626888 4.914213562373092 -2.255973186038318e-14
  endloop
endfacet
facet normal 0.6087614290087349 -0.7933533402912242 -2.061281775747643e-15
  outer loop
    vertex 5.585786437626888 4.914213562373092 5.000000000000008
    vertex 5.999999999999966 5.232050807568886 3.3839597790574766e-14
    vertex 6.0 5.232050807568886 5.000000000000008
  endloop
endfacet
facet normal 0.7933533402912256 -0.6087614290087331 8.929554768151069e-16
  outer loop
    vertex 5.585786437626888 4.914213562373092 -2.255973186038318e-14
    vertex 5.267949192431086 4.499999999999992 4.999999999999985
    vertex 5.2679491924310975 4.499999999999992 -5.639932965095795e-15
  endloop
endfacet
facet normal 0.7933533402912256 -0.6087614290087331 8.929554768151069e-16
  outer loop
    vertex 5.267949192431086 4.499999999999992 4.999999999999985
    vertex 5.585786437626888 4.914213562373092 -2.255973186038318e-14
    vertex 5.585786437626888 4.914213562373092 5.000000000000008
  endloop
endfacet
facet normal 0.9238795325113074 -0.3826834323650398 1.042408790796795e-15
  outer loop
    vertex 5.2679491924310975 4.499999999999992 -5.639932965095795e-15
    vertex 5.068148347421865 4.017638090205039 4.99999999999998
    vertex 5.068148347421865 4.017638090205039 1.127986593019159e-14
  endloop
endfacet
facet normal 0.9238795325113074 -0.3826834323650398 1.042408790796795e-15
  outer loop
    vertex 5.068148347421865 4.017638090205039 4.99999999999998
    vertex 5.2679491924310975 4.499999999999992 -5.639932965095795e-15
    vertex 5.267949192431086 4.499999999999992 4.999999999999985
  endloop
endfacet
facet normal 0.9914448613738035 -0.13052619222010384 -1.1188597108078441e-15
  outer loop
    vertex 5.068148347421865 4.017638090205039 1.127986593019159e-14
    vertex 4.99999999999998 3.499999999999994 5.000000000000008
    vertex 4.999999999999968 3.499999999999994 1.6919798895287383e-14
  endloop
endfacet
facet normal 0.9914448613738035 -0.13052619222010384 -1.1188597108078441e-15
  outer loop
    vertex 4.99999999999998 3.499999999999994 5.000000000000008
    vertex 5.068148347421865 4.017638090205039 1.127986593019159e-14
    vertex 5.068148347421865 4.017638090205039 4.99999999999998
  endloop
endfacet
facet normal 0.9914448613738033 0.13052619222010667 -1.119590118540169e-15
  outer loop
    vertex 4.999999999999968 3.499999999999994 1.6919798895287383e-14
    vertex 5.068148347421865 2.9823619097949594 4.99999999999998
    vertex 5.068148347421865 2.9823619097949594 1.127986593019159e-14
  endloop
endfacet
facet normal 0.9914448613738033 0.13052619222010667 -1.119590118540169e-15
  outer loop
    vertex 5.068148347421865 2.9823619097949594 4.99999999999998
    vertex 4.999999999999968 3.499999999999994 1.6919798895287383e-14
    vertex 4.99999999999998 3.499999999999994 5.000000000000008
  endloop
endfacet
facet normal 0.9238795325113106 0.3826834323650322 1.0402673436797314e-15
  outer loop
    vertex 5.068148347421865 2.9823619097949594 1.127986593019159e-14
    vertex 5.267949192431086 2.4999999999999956 4.999999999999985
    vertex 5.2679491924310975 2.4999999999999956 -5.639932965095795e-15
  endloop
endfacet
facet normal 0.9238795325113106 0.3826834323650322 1.0402673436797314e-15
  outer loop
    vertex 5.267949192431086 2.4999999999999956 4.999999999999985
    vertex 5.068148347421865 2.9823619097949594 1.127986593019159e-14
    vertex 5.068148347421865 2.9823619097949594 4.99999999999998
  endloop
endfacet
facet normal 0.7933533402912176 0.6087614290087435 8.929554768150984e-16
  outer loop
    vertex 5.2679491924310975 2.4999999999999956 -5.639932965095795e-15
    vertex 5.585786437626888 2.0857864376269064 5.000000000000008
    vertex 5.585786437626888 2.0857864376269064 -2.255973186038318e-14
  endloop
endfacet
facet normal 0.7933533402912176 0.6087614290087435 8.929554768150984e-16
  outer loop
    vertex 5.585786437626888 2.0857864376269064 5.000000000000008
    vertex 5.2679491924310975 2.4999999999999956 -5.639932965095795e-15
    vertex 5.267949192431086 2.4999999999999956 4.999999999999985
  endloop
endfacet
facet normal 0.6087614290087179 0.7933533402912372 -2.0612817757475726e-15
  outer loop
    vertex 5.585786437626888 2.0857864376269064 5.000000000000008
    vertex 5.999999999999966 1.7679491924311266 3.3839597790574766e-14
    vertex 5.585786437626888 2.0857864376269064 -2.255973186038318e-14
  endloop
endfacet
facet normal 0.6087614290087179 0.7933533402912372 -2.0612817757475726e-15
  outer loop
    vertex 5.999999999999966 1.7679491924311266 3.3839597790574766e-14
    vertex 5.585786437626888 2.0857864376269064 5.000000000000008
    vertex 6.0 1.7679491924311266 5.000000000000008
  endloop
endfacet
facet normal 0.3826834323650745 0.9238795325112932 -2.158641732322375e-15
  outer loop
    vertex 5.999999999999966 1.7679491924311266 3.3839597790574766e-14
    vertex 6.482361909794964 1.568148347421872 5.0000000000000355
    vertex 6.482361909794942 1.568148347421872 2.255973186038318e-14
  endloop
endfacet
facet normal 0.3826834323650745 0.9238795325112932 -2.158641732322375e-15
  outer loop
    vertex 6.482361909794964 1.568148347421872 5.0000000000000355
    vertex 5.999999999999966 1.7679491924311266 3.3839597790574766e-14
    vertex 6.0 1.7679491924311266 5.000000000000008
  endloop
endfacet
facet normal 0.13052619222007342 0.9914448613738077 -4.4140726313959724e-16
  outer loop
    vertex 6.482361909794942 1.568148347421872 2.255973186038318e-14
    vertex 6.999999999999998 1.4999999999999973 4.99999999999998
    vertex 6.999999999999988 1.4999999999999973 1.127986593019159e-14
  endloop
endfacet
facet normal 0.13052619222007342 0.9914448613738077 -4.4140726313959724e-16
  outer loop
    vertex 6.999999999999998 1.4999999999999973 4.99999999999998
    vertex 6.482361909794942 1.568148347421872 2.255973186038318e-14
    vertex 6.482361909794964 1.568148347421872 5.0000000000000355
  endloop
endfacet
facet normal -0.1305261922200748 0.9914448613738075 8.156915269946327e-20
  outer loop
    vertex 6.999999999999988 1.4999999999999973 1.127986593019159e-14
    vertex 7.517638090205021 1.568148347421872 5.000000000000019
    vertex 7.517638090205033 1.568148347421872 -1.6919798895287383e-14
  endloop
endfacet
facet normal -0.1305261922200748 0.9914448613738075 8.156915269946327e-20
  outer loop
    vertex 7.517638090205021 1.568148347421872 5.000000000000019
    vertex 6.999999999999988 1.4999999999999973 1.127986593019159e-14
    vertex 6.999999999999998 1.4999999999999973 4.99999999999998
  endloop
endfacet
facet normal -0.38268343236507446 0.9238795325112932 4.297775438656836e-16
  outer loop
    vertex 7.517638090205021 1.568148347421872 5.000000000000019
    vertex 7.999999999999985 1.7679491924311266 1.127986593019159e-14
    vertex 7.517638090205033 1.568148347421872 -1.6919798895287383e-14
  endloop
endfacet
facet normal -0.38268343236507446 0.9238795325112932 4.297775438656836e-16
  outer loop
    vertex 7.999999999999985 1.7679491924311266 1.127986593019159e-14
    vertex 7.517638090205021 1.568148347421872 5.000000000000019
    vertex 8.000000000000007 1.7679491924311266 5.00000000000003
  endloop
endfacet
facet normal -0.6087614290087128 0.7933533402912413 2.748888369788688e-15
  outer loop
    vertex 7.999999999999985 1.7679491924311266 1.127986593019159e-14
    vertex 8.414213562373108 2.0857864376269064 5.000000000000025
    vertex 8.414213562373085 2.0857864376269064 5.639932965095795e-15
  endloop
endfacet
facet normal -0.6087614290087128 0.7933533402912413 2.748888369788688e-15
  outer loop
    vertex 8.414213562373108 2.0857864376269064 5.000000000000025
    vertex 7.999999999999985 1.7679491924311266 1.127986593019159e-14
    vertex 8.000000000000007 1.7679491924311266 5.00000000000003
  endloop
endfacet
facet normal -0.793353340291228 0.60876142900873 8.97373050756093e-16
  outer loop
    vertex 8.732050807568877 2.4999999999999956 5.000000000000008
    vertex 8.414213562373085 2.0857864376269064 5.639932965095795e-15
    vertex 8.414213562373108 2.0857864376269064 5.000000000000025
  endloop
endfacet
facet normal -0.793353340291228 0.60876142900873 8.97373050756093e-16
  outer loop
    vertex 8.414213562373085 2.0857864376269064 5.639932965095795e-15
    vertex 8.732050807568877 2.4999999999999956 5.000000000000008
    vertex 8.732050807568887 2.4999999999999956 -1.127986593019159e-14
  endloop
endfacet
facet normal -0.9238795325113106 0.38268343236503216 -1.0426935832239325e-15
  outer loop
    vertex 8.931851652578109 2.9823619097949594 5.000000000000002
    vertex 8.732050807568887 2.4999999999999956 -1.127986593019159e-14
    vertex 8.732050807568877 2.4999999999999956 5.000000000000008
  endloop
endfacet
facet normal -0.9238795325113106 0.38268343236503216 -1.0426935832239325e-15
  outer loop
    vertex 8.732050807568887 2.4999999999999956 -1.127986593019159e-14
    vertex 8.931851652578109 2.9823619097949594 5.000000000000002
    vertex 8.931851652578109 2.9823619097949594 0.0
  endloop
endfacet
facet normal -0.9914448613738075 0.1305261922200748 6.469812586384001e-19
  outer loop
    vertex 8.999999999999984 3.499999999999994 5.000000000000047
    vertex 8.931851652578109 2.9823619097949594 0.0
    vertex 8.931851652578109 2.9823619097949594 5.000000000000002
  endloop
endfacet
facet normal -0.9914448613738075 0.1305261922200748 6.469812586384001e-19
  outer loop
    vertex 8.931851652578109 2.9823619097949594 0.0
    vertex 8.999999999999984 3.499999999999994 5.000000000000047
    vertex 8.999999999999984 3.499999999999994 1.6919798895287383e-14
  endloop
endfacet
facet normal -0.9914448613738077 -0.130526192220072 -8.342647368339594e-20
  outer loop
    vertex 8.931851652578109 4.017638090205039 5.000000000000002
    vertex 8.999999999999984 3.499999999999994 1.6919798895287383e-14
    vertex 8.999999999999984 3.499999999999994 5.000000000000047
  endloop
endfacet
facet normal -0.9914448613738077 -0.130526192220072 -8.342647368339594e-20
  outer loop
    vertex 8.999999999999984 3.499999999999994 1.6919798895287383e-14
    vertex 8.931851652578109 4.017638090205039 5.000000000000002
    vertex 8.931851652578109 4.017638090205039 0.0
  endloop
endfacet
facet normal -0.9238795325113076 -0.3826834323650399 -1.0437643067824638e-15
  outer loop
    vertex 8.732050807568877 4.499999999999992 5.000000000000008
    vertex 8.931851652578109 4.017638090205039 0.0
    vertex 8.931851652578109 4.017638090205039 5.000000000000002
  endloop
endfacet
facet normal -0.9238795325113076 -0.3826834323650399 -1.0437643067824638e-15
  outer loop
    vertex 8.931851652578109 4.017638090205039 0.0
    vertex 8.732050807568877 4.499999999999992 5.000000000000008
    vertex 8.732050807568887 4.499999999999992 -1.127986593019159e-14
  endloop
endfacet
facet normal -0.7933533402912153 -0.6087614290087467 -8.935488190514935e-16
  outer loop
    vertex 8.414213562373074 4.914213562373092 5.000000000000019
    vertex 8.732050807568887 4.499999999999992 -1.127986593019159e-14
    vertex 8.732050807568877 4.499999999999992 5.000000000000008
  endloop
endfacet
facet normal -0.7933533402912153 -0.6087614290087467 -8.935488190514935e-16
  outer loop
    vertex 8.732050807568887 4.499999999999992 -1.127986593019159e-14
    vertex 8.414213562373074 4.914213562373092 5.000000000000019
    vertex 8.414213562373074 4.914213562373092 5.639932965095795e-15
  endloop
endfacet
facet normal -0.6087614290087505 -0.7933533402912122 1.3737298897295733e-15
  outer loop
    vertex 8.414213562373074 4.914213562373092 5.000000000000019
    vertex 7.999999999999985 5.232050807568886 1.127986593019159e-14
    vertex 8.414213562373074 4.914213562373092 5.639932965095795e-15
  endloop
endfacet
facet normal -0.6087614290087505 -0.7933533402912122 1.3737298897295733e-15
  outer loop
    vertex 7.999999999999985 5.232050807568886 1.127986593019159e-14
    vertex 8.414213562373074 4.914213562373092 5.000000000000019
    vertex 8.000000000000007 5.232050807568886 5.00000000000003
  endloop
endfacet
facet normal -0.3826834323650745 -0.9238795325112932 4.297775438656837e-16
  outer loop
    vertex 7.999999999999985 5.232050807568886 1.127986593019159e-14
    vertex 7.517638090205021 5.431851652578141 5.000000000000019
    vertex 7.517638090205033 5.431851652578141 -1.6919798895287383e-14
  endloop
endfacet
facet normal -0.3826834323650745 -0.9238795325112932 4.297775438656837e-16
  outer loop
    vertex 7.517638090205021 5.431851652578141 5.000000000000019
    vertex 7.999999999999985 5.232050807568886 1.127986593019159e-14
    vertex 8.000000000000007 5.232050807568886 5.00000000000003
  endloop
endfacet
facet normal 0.13052619222005635 0.9914448613738098 -1.1780661030851474e-15
  outer loop
    vertex 67.48236190979496 1.5681483474218607 1.6919798895287383e-14
    vertex 68.00000000000003 1.4999999999999973 5.000000000000019
    vertex 67.99999999999994 1.4999999999999973 -1.127986593019159e-14
  endloop
endfacet
facet normal 0.13052619222005635 0.9914448613738098 -1.1780661030851474e-15
  outer loop
    vertex 68.00000000000003 1.4999999999999973 5.000000000000019
    vertex 67.48236190979496 1.5681483474218607 1.6919798895287383e-14
    vertex 67.48236190979496 1.5681483474218607 5.000000000000002
  endloop
endfacet
facet normal -0.1305261922200675 0.9914448613738084 2.355934017145837e-15
  outer loop
    vertex 68.00000000000003 1.4999999999999973 5.000000000000019
    vertex 68.51763809020493 1.5681483474218607 0.0
    vertex 67.99999999999994 1.4999999999999973 -1.127986593019159e-14
  endloop
endfacet
facet normal -0.1305261922200675 0.9914448613738084 2.355934017145837e-15
  outer loop
    vertex 68.51763809020493 1.5681483474218607 0.0
    vertex 68.00000000000003 1.4999999999999973 5.000000000000019
    vertex 68.51763809020501 1.5681483474218607 5.000000000000013
  endloop
endfacet
facet normal -0.3826834323650433 0.9238795325113061 1.7262465939624357e-15
  outer loop
    vertex 68.51763809020501 1.5681483474218607 5.000000000000013
    vertex 69.00000000000003 1.7679491924311266 3.3839597790574766e-14
    vertex 68.51763809020493 1.5681483474218607 0.0
  endloop
endfacet
facet normal -0.3826834323650433 0.9238795325113061 1.7262465939624357e-15
  outer loop
    vertex 69.00000000000003 1.7679491924311266 3.3839597790574766e-14
    vertex 68.51763809020501 1.5681483474218607 5.000000000000013
    vertex 68.99999999999999 1.7679491924311266 5.000000000000008
  endloop
endfacet
facet normal -0.6087614290087336 0.7933533402912252 -8.240544374692141e-15
  outer loop
    vertex 68.99999999999999 1.7679491924311266 5.000000000000008
    vertex 69.41421356237313 2.0857864376269064 3.3839597790574766e-14
    vertex 69.00000000000003 1.7679491924311266 3.3839597790574766e-14
  endloop
endfacet
facet normal -0.6087614290087336 0.7933533402912252 -8.240544374692141e-15
  outer loop
    vertex 69.41421356237313 2.0857864376269064 3.3839597790574766e-14
    vertex 68.99999999999999 1.7679491924311266 5.000000000000008
    vertex 69.41421356237304 2.0857864376269064 5.000000000000002
  endloop
endfacet
facet normal -0.7933533402911812 0.608761429008791 2.3186609225556965e-18
  outer loop
    vertex 69.73205080756897 2.4999999999999956 5.000000000000008
    vertex 69.41421356237313 2.0857864376269064 3.3839597790574766e-14
    vertex 69.41421356237304 2.0857864376269064 5.000000000000002
  endloop
endfacet
facet normal -0.7933533402911812 0.608761429008791 2.3186609225556965e-18
  outer loop
    vertex 69.41421356237313 2.0857864376269064 3.3839597790574766e-14
    vertex 69.73205080756897 2.4999999999999956 5.000000000000008
    vertex 69.73205080756888 2.4999999999999956 2.255973186038318e-14
  endloop
endfacet
facet normal -0.9238795325113222 0.3826834323650045 1.6676281704664628e-14
  outer loop
    vertex 69.93185165257817 2.9823619097949594 5.000000000000013
    vertex 69.73205080756888 2.4999999999999956 2.255973186038318e-14
    vertex 69.73205080756897 2.4999999999999956 5.000000000000008
  endloop
endfacet
facet normal -0.9238795325113222 0.3826834323650045 1.6676281704664628e-14
  outer loop
    vertex 69.73205080756888 2.4999999999999956 2.255973186038318e-14
    vertex 69.93185165257817 2.9823619097949594 5.000000000000013
    vertex 69.93185165257809 2.9823619097949594 1.127986593019159e-14
  endloop
endfacet
facet normal -0.9914448613738018 0.13052619222011722 1.3419751260751791e-14
  outer loop
    vertex 70.00000000000006 3.499999999999994 5.000000000000002
    vertex 69.93185165257809 2.9823619097949594 1.127986593019159e-14
    vertex 69.93185165257817 2.9823619097949594 5.000000000000013
  endloop
endfacet
facet normal -0.9914448613738018 0.13052619222011722 1.3419751260751791e-14
  outer loop
    vertex 69.93185165257809 2.9823619097949594 1.127986593019159e-14
    vertex 70.00000000000006 3.499999999999994 5.000000000000002
    vertex 70.0 3.499999999999994 -5.639932965095795e-15
  endloop
endfacet
facet normal -0.9914448613738023 -0.13052619222011447 1.3419751260751799e-14
  outer loop
    vertex 69.93185165257817 4.017638090205039 5.000000000000013
    vertex 70.0 3.499999999999994 -5.639932965095795e-15
    vertex 70.00000000000006 3.499999999999994 5.000000000000002
  endloop
endfacet
facet normal -0.9914448613738023 -0.13052619222011447 1.3419751260751799e-14
  outer loop
    vertex 70.0 3.499999999999994 -5.639932965095795e-15
    vertex 69.93185165257817 4.017638090205039 5.000000000000013
    vertex 69.93185165257809 4.017638090205039 1.127986593019159e-14
  endloop
endfacet
facet normal -0.9238795325113222 -0.3826834323650045 1.6676281704664628e-14
  outer loop
    vertex 69.73205080756897 4.500000000000003 5.000000000000008
    vertex 69.93185165257809 4.017638090205039 1.127986593019159e-14
    vertex 69.93185165257817 4.017638090205039 5.000000000000013
  endloop
endfacet
facet normal -0.9238795325113222 -0.3826834323650045 1.6676281704664628e-14
  outer loop
    vertex 69.93185165257809 4.017638090205039 1.127986593019159e-14
    vertex 69.73205080756897 4.500000000000003 5.000000000000008
    vertex 69.73205080756888 4.500000000000003 2.255973186038318e-14
  endloop
endfacet
facet normal -0.7933533402911602 -0.6087614290088182 3.5833711249202835e-15
  outer loop
    vertex 69.41421356237304 4.914213562373092 5.000000000000002
    vertex 69.73205080756888 4.500000000000003 2.255973186038318e-14
    vertex 69.73205080756897 4.500000000000003 5.000000000000008
  endloop
endfacet
facet normal -0.7933533402911602 -0.6087614290088182 3.5833711249202835e-15
  outer loop
    vertex 69.73205080756888 4.500000000000003 2.255973186038318e-14
    vertex 69.41421356237304 4.914213562373092 5.000000000000002
    vertex 69.41421356237309 4.914213562373092 0.0
  endloop
endfacet
facet normal -0.6087614290087715 -0.7933533402911963 -5.497007621913588e-15
  outer loop
    vertex 69.41421356237304 4.914213562373092 5.000000000000002
    vertex 69.00000000000003 5.232050807568886 3.3839597790574766e-14
    vertex 69.41421356237309 4.914213562373092 0.0
  endloop
endfacet
facet normal -0.6087614290087715 -0.7933533402911963 -5.497007621913588e-15
  outer loop
    vertex 69.00000000000003 5.232050807568886 3.3839597790574766e-14
    vertex 69.41421356237304 4.914213562373092 5.000000000000002
    vertex 68.99999999999999 5.232050807568886 5.000000000000008
  endloop
endfacet
facet normal -0.3826834323650248 -0.9238795325113138 1.7260694146743243e-15
  outer loop
    vertex 69.00000000000003 5.232050807568886 3.3839597790574766e-14
    vertex 68.51763809020501 5.431851652578141 5.000000000000013
    vertex 68.51763809020493 5.431851652578141 1.127986593019159e-14
  endloop
endfacet
facet normal -0.3826834323650248 -0.9238795325113138 1.7260694146743243e-15
  outer loop
    vertex 68.51763809020501 5.431851652578141 5.000000000000013
    vertex 69.00000000000003 5.232050807568886 3.3839597790574766e-14
    vertex 68.99999999999999 5.232050807568886 5.000000000000008
  endloop
endfacet
facet normal -0.13052619222008877 -0.9914448613738055 2.35678290207148e-15
  outer loop
    vertex 68.51763809020493 5.431851652578141 1.127986593019159e-14
    vertex 68.00000000000003 5.500000000000015 5.000000000000019
    vertex 67.99999999999994 5.500000000000015 -1.127986593019159e-14
  endloop
endfacet
facet normal -0.13052619222008877 -0.9914448613738055 2.35678290207148e-15
  outer loop
    vertex 68.00000000000003 5.500000000000015 5.000000000000019
    vertex 68.51763809020493 5.431851652578141 1.127986593019159e-14
    vertex 68.51763809020501 5.431851652578141 5.000000000000013
  endloop
endfacet
facet normal 0.1305261922200776 -0.991444861373807 -1.1780661030853367e-15
  outer loop
    vertex 68.00000000000003 5.500000000000015 5.000000000000019
    vertex 67.48236190979496 5.431851652578141 1.6919798895287383e-14
    vertex 67.99999999999994 5.500000000000015 -1.127986593019159e-14
  endloop
endfacet
facet normal 0.1305261922200776 -0.991444861373807 -1.1780661030853367e-15
  outer loop
    vertex 67.48236190979496 5.431851652578141 1.6919798895287383e-14
    vertex 68.00000000000003 5.500000000000015 5.000000000000019
    vertex 67.48236190979496 5.431851652578141 5.000000000000002
  endloop
endfacet
facet normal 0.38268343236508595 -0.9238795325112884 -1.7252085095616404e-15
  outer loop
    vertex 67.48236190979496 5.431851652578141 5.000000000000002
    vertex 66.99999999999999 5.232050807568886 2.8199664825478976e-14
    vertex 67.48236190979496 5.431851652578141 1.6919798895287383e-14
  endloop
endfacet
facet normal 0.38268343236508595 -0.9238795325112884 -1.7252085095616404e-15
  outer loop
    vertex 66.99999999999999 5.232050807568886 2.8199664825478976e-14
    vertex 67.48236190979496 5.431851652578141 5.000000000000002
    vertex 67.00000000000003 5.232050807568886 5.000000000000013
  endloop
endfacet
facet normal 0.6087614290087089 -0.7933533402912442 2.7496795309294346e-15
  outer loop
    vertex 67.00000000000003 5.232050807568886 5.000000000000013
    vertex 66.58578643762694 4.914213562373092 2.8199664825478976e-14
    vertex 66.99999999999999 5.232050807568886 2.8199664825478976e-14
  endloop
endfacet
facet normal 0.6087614290087089 -0.7933533402912442 2.7496795309294346e-15
  outer loop
    vertex 66.58578643762694 4.914213562373092 2.8199664825478976e-14
    vertex 67.00000000000003 5.232050807568886 5.000000000000013
    vertex 66.58578643762685 4.914213562373092 4.99999999999998
  endloop
endfacet
facet normal 0.7933533402912517 -0.6087614290086991 -1.0110235212814376e-18
  outer loop
    vertex 66.58578643762694 4.914213562373092 2.8199664825478976e-14
    vertex 66.26794919243116 4.499999999999992 5.000000000000025
    vertex 66.26794919243108 4.499999999999992 1.127986593019159e-14
  endloop
endfacet
facet normal 0.7933533402912517 -0.6087614290086991 -1.0110235212814376e-18
  outer loop
    vertex 66.26794919243116 4.499999999999992 5.000000000000025
    vertex 66.58578643762694 4.914213562373092 2.8199664825478976e-14
    vertex 66.58578643762685 4.914213562373092 4.99999999999998
  endloop
endfacet
facet normal 0.9238795325113036 -0.382683432365049 -2.0842893812127915e-14
  outer loop
    vertex 66.26794919243108 4.499999999999992 1.127986593019159e-14
    vertex 66.06814834742195 4.017638090205039 5.000000000000025
    vertex 66.06814834742183 4.017638090205039 2.255973186038318e-14
  endloop
endfacet
facet normal 0.9238795325113036 -0.382683432365049 -2.0842893812127915e-14
  outer loop
    vertex 66.06814834742195 4.017638090205039 5.000000000000025
    vertex 66.26794919243108 4.499999999999992 1.127986593019159e-14
    vertex 66.26794919243116 4.499999999999992 5.000000000000025
  endloop
endfacet
facet normal 0.9914448613738023 -0.13052619222011447 -2.2367158057900258e-14
  outer loop
    vertex 66.06814834742183 4.017638090205039 2.255973186038318e-14
    vertex 66.00000000000004 3.499999999999994 5.000000000000025
    vertex 65.99999999999994 3.499999999999994 2.8199664825478976e-14
  endloop
endfacet
facet normal 0.9914448613738023 -0.13052619222011447 -2.2367158057900258e-14
  outer loop
    vertex 66.00000000000004 3.499999999999994 5.000000000000025
    vertex 66.06814834742183 4.017638090205039 2.255973186038318e-14
    vertex 66.06814834742195 4.017638090205039 5.000000000000025
  endloop
endfacet
facet normal 0.9914448613738018 0.13052619222011724 -2.236642765016792e-14
  outer loop
    vertex 65.99999999999994 3.499999999999994 2.8199664825478976e-14
    vertex 66.06814834742195 2.9823619097949594 5.000000000000025
    vertex 66.06814834742183 2.9823619097949594 2.255973186038318e-14
  endloop
endfacet
facet normal 0.9914448613738018 0.13052619222011724 -2.236642765016792e-14
  outer loop
    vertex 66.06814834742195 2.9823619097949594 5.000000000000025
    vertex 65.99999999999994 3.499999999999994 2.8199664825478976e-14
    vertex 66.00000000000004 3.499999999999994 5.000000000000025
  endloop
endfacet
facet normal 0.9238795325113068 0.3826834323650413 -2.08426209553651e-14
  outer loop
    vertex 66.06814834742183 2.9823619097949594 2.255973186038318e-14
    vertex 66.26794919243116 2.4999999999999956 5.000000000000002
    vertex 66.26794919243108 2.4999999999999956 1.127986593019159e-14
  endloop
endfacet
facet normal 0.9238795325113068 0.3826834323650413 -2.08426209553651e-14
  outer loop
    vertex 66.26794919243116 2.4999999999999956 5.000000000000002
    vertex 66.06814834742183 2.9823619097949594 2.255973186038318e-14
    vertex 66.06814834742195 2.9823619097949594 5.000000000000025
  endloop
endfacet
facet normal 0.7933533402912438 0.6087614290087094 1.6043657577013288e-18
  outer loop
    vertex 66.26794919243108 2.4999999999999956 1.127986593019159e-14
    vertex 66.58578643762685 2.0857864376269064 4.99999999999998
    vertex 66.58578643762694 2.0857864376269064 2.8199664825478976e-14
  endloop
endfacet
facet normal 0.7933533402912438 0.6087614290087094 1.6043657577013288e-18
  outer loop
    vertex 66.58578643762685 2.0857864376269064 4.99999999999998
    vertex 66.26794919243108 2.4999999999999956 1.127986593019159e-14
    vertex 66.26794919243116 2.4999999999999956 5.000000000000002
  endloop
endfacet
facet normal 0.6087614290086919 0.7933533402912571 2.747185094578818e-15
  outer loop
    vertex 66.58578643762685 2.0857864376269064 4.99999999999998
    vertex 66.99999999999999 1.7679491924311266 2.8199664825478976e-14
    vertex 66.58578643762694 2.0857864376269064 2.8199664825478976e-14
  endloop
endfacet
facet normal 0.6087614290086919 0.7933533402912571 2.747185094578818e-15
  outer loop
    vertex 66.99999999999999 1.7679491924311266 2.8199664825478976e-14
    vertex 66.58578643762685 2.0857864376269064 4.99999999999998
    vertex 67.00000000000003 1.7679491924311266 4.999999999999991
  endloop
endfacet
facet normal 0.38268343236510444 0.9238795325112809 -1.7270770999158315e-15
  outer loop
    vertex 66.99999999999999 1.7679491924311266 2.8199664825478976e-14
    vertex 67.48236190979496 1.5681483474218607 5.000000000000002
    vertex 67.48236190979496 1.5681483474218607 1.6919798895287383e-14
  endloop
endfacet
facet normal 0.38268343236510444 0.9238795325112809 -1.7270770999158315e-15
  outer loop
    vertex 67.48236190979496 1.5681483474218607 5.000000000000002
    vertex 66.99999999999999 1.7679491924311266 2.8199664825478976e-14
    vertex 67.00000000000003 1.7679491924311266 4.999999999999991
  endloop
endfacet
endsolid motorHolder
